<?xml version="1.0" encoding="UTF-8"?>
<svg version="1.1" xmlns="http://www.w3.org/2000/svg" width="1913" height="610">
<path d="M0 0 C631.29 0 1262.58 0 1913 0 C1913 201.3 1913 402.6 1913 610 C1281.71 610 650.42 610 0 610 C0 408.7 0 207.4 0 0 Z " fill="#FEFEFE" transform="translate(0,0)"/>
<path d="M0 0 C629.64 0 1259.28 0 1908 0 C1908 18.81 1908 37.62 1908 57 C1278.36 57 648.72 57 0 57 C0 38.19 0 19.38 0 0 Z " fill="#212529" transform="translate(0,0)"/>
<path d="M0 0 C0.82175217 -0.0087616 1.64350433 -0.01752319 2.49015808 -0.02655029 C5.19905834 -0.04850773 7.90631833 -0.03400528 10.61523438 -0.01708984 C12.50183423 -0.02045905 14.38843198 -0.02531253 16.27502441 -0.03158569 C20.22604062 -0.03895205 24.17649105 -0.02825922 28.12744141 -0.00488281 C33.18859134 0.02360491 38.2484156 0.00719966 43.30951691 -0.02274513 C47.20438604 -0.04082457 51.09894155 -0.03505713 54.99382019 -0.02210617 C56.85971738 -0.01877394 58.72564317 -0.02285282 60.59150696 -0.03450394 C63.20109317 -0.04722354 65.80854156 -0.02782195 68.41796875 0 C69.57144051 -0.01518173 69.57144051 -0.01518173 70.74821472 -0.03067017 C74.686998 0.04701513 76.5333105 0.51142246 79.68673706 2.9446106 C82.39704989 6.56644583 82.43046229 9.69742063 82.37304688 14.05322266 C82.37783051 14.85554321 82.38261414 15.65786377 82.38754272 16.48449707 C82.39093504 18.17555713 82.3817792 19.86668337 82.36083984 21.55761719 C82.33406004 24.13967709 82.36060534 26.71739099 82.39257812 29.29931641 C82.3892739 30.94646138 82.3828674 32.59360365 82.37304688 34.24072266 C82.38822861 35.39247986 82.38822861 35.39247986 82.40371704 36.56750488 C82.32290558 40.28101103 81.92980876 42.35188142 79.68673706 45.34933472 C75.91997406 48.25577407 72.98879185 48.35410544 68.41796875 48.29394531 C67.59621658 48.30270691 66.77446442 48.31146851 65.92781067 48.32049561 C63.21891041 48.34245304 60.51165042 48.3279506 57.80273438 48.31103516 C55.91613452 48.31440436 54.02953677 48.31925785 52.14294434 48.32553101 C48.19192813 48.33289736 44.2414777 48.32220454 40.29052734 48.29882812 C35.22937741 48.2703404 30.16955315 48.28674565 25.10845184 48.31669044 C21.21358271 48.33476988 17.3190272 48.32900245 13.42414856 48.31605148 C11.55825137 48.31271925 9.69232558 48.31679813 7.82646179 48.32844925 C5.21687558 48.34116885 2.60942719 48.32176726 0 48.29394531 C-1.15347176 48.30912704 -1.15347176 48.30912704 -2.33024597 48.32461548 C-6.26902925 48.24693018 -8.11534175 47.78252285 -11.26876831 45.34933472 C-13.97908114 41.72749948 -14.01249354 38.59652468 -13.95507812 34.24072266 C-13.96225357 33.03724182 -13.96225357 33.03724182 -13.96957397 31.80944824 C-13.97296629 30.11838818 -13.96381045 28.42726195 -13.94287109 26.73632812 C-13.91609129 24.15426822 -13.94263659 21.57655432 -13.97460938 18.99462891 C-13.97130515 17.34748394 -13.96489865 15.70034166 -13.95507812 14.05322266 C-13.96519928 13.28538452 -13.97532043 12.51754639 -13.98574829 11.72644043 C-13.90493683 8.01293428 -13.51184001 5.94206389 -11.26876831 2.9446106 C-7.50200531 0.03817124 -4.5708231 -0.06016013 0 0 Z " fill="#0E6EFD" transform="translate(156.291015625,379.35302734375)"/>
<path d="M0 0 C1.65 0 3.3 0 5 0 C5 201.3 5 402.6 5 610 C3.35 610 1.7 610 0 610 C0 408.7 0 207.4 0 0 Z " fill="#F3F3F3" transform="translate(1908,0)"/>
<path d="M0 0 C0.99 0 1.98 0 3 0 C4.66666667 0 6.33333333 0 8 0 C8.08767555 3.37483413 8.14061628 6.74937215 8.1875 10.125 C8.21263672 11.07632813 8.23777344 12.02765625 8.26367188 13.0078125 C8.32015027 18.42973862 8.13468232 22.34707396 5 27 C0.75172017 29.74888695 -4.11617113 29.1915227 -9 29 C-9.33 27.35 -9.66 25.7 -10 24 C-6.04 24 -2.08 24 2 24 C2 22.02 2 20.04 2 18 C1.01 18.66 0.02 19.32 -1 20 C-3.875 20.5 -3.875 20.5 -7 20 C-9.93620103 17.44678171 -11.59843712 15.79131965 -12.44921875 11.99609375 C-12.65229241 8.30575511 -12.10702632 6.16767456 -10.125 3.0625 C-6.70651326 -0.25544302 -4.66085201 -0.09511943 0 0 Z " fill="#35383C" transform="translate(200,97)"/>
<path d="M0 0 C0.66 0.66 1.32 1.32 2 2 C2.33 1.34 2.66 0.68 3 0 C4.32 0 5.64 0 7 0 C7.11618764 3.91641711 7.18724654 7.83239101 7.25 11.75 C7.28351563 12.86117187 7.31703125 13.97234375 7.3515625 15.1171875 C7.36445313 16.18710938 7.37734375 17.25703125 7.390625 18.359375 C7.41157227 19.34389648 7.43251953 20.32841797 7.45410156 21.34277344 C6.8713058 24.75306863 5.67977622 25.88158548 3 28 C0.11788698 28.96070434 -1.69850044 29.10581883 -4.6875 29.0625 C-5.89986328 29.04896484 -5.89986328 29.04896484 -7.13671875 29.03515625 C-7.75160156 29.02355469 -8.36648437 29.01195313 -9 29 C-9.33 27.68 -9.66 26.36 -10 25 C-8.95199219 24.92652344 -8.95199219 24.92652344 -7.8828125 24.8515625 C-6.97273437 24.77679688 -6.06265625 24.70203125 -5.125 24.625 C-3.76761719 24.52058594 -3.76761719 24.52058594 -2.3828125 24.4140625 C0.17941903 24.20431868 0.17941903 24.20431868 2 22 C2 20.68 2 19.36 2 18 C1.01 18.66 0.02 19.32 -1 20 C-3.9375 20.375 -3.9375 20.375 -7 20 C-9.30275556 18.1329009 -10.67823871 16.64352259 -12 14 C-12.5811138 6.91041162 -12.5811138 6.91041162 -10.125 3.0625 C-6.76186949 -0.2017149 -4.62376821 -0.28898551 0 0 Z " fill="#2E3235" transform="translate(258,97)"/>
<path d="M0 0 C1.32 0 2.64 0 4 0 C4.33 3.96 4.66 7.92 5 12 C5.99 11.34 6.98 10.68 8 10 C11.99800164 9.39160845 13.52201252 9.66748697 16.875 12 C19.27418975 15.38709142 19.62947494 17.03937953 19.36328125 21.0703125 C18.83322456 23.88588244 17.77174352 25.76891557 16 28 C12.54754176 30.30163882 11.05261287 30.34490322 7 30 C6.34 29.34 5.68 28.68 5 28 C4.67 28.66 4.34 29.32 4 30 C2.68 30 1.36 30 0 30 C0 20.1 0 10.2 0 0 Z " fill="#34383C" transform="translate(978,87)"/>
<path d="M0 0 C1.32 0 2.64 0 4 0 C4.33 4.29 4.66 8.58 5 13 C5.99 12.01 6.98 11.02 8 10 C11.96432218 9.31055266 13.51881355 9.67572217 16.875 11.9375 C19.67760986 15.97655539 19.81403883 19.21002414 19 24 C17.99205472 26.40027647 17.37355677 27.70945584 15.3125 29.3125 C11.99706958 30.2981685 9.34507049 29.69425991 6 29 C5.67 28.67 5.34 28.34 5 28 C4.67 28.66 4.34 29.32 4 30 C2.68 30 1.36 30 0 30 C0 20.1 0 10.2 0 0 Z " fill="#2F3336" transform="translate(645,87)"/>
<path d="M0 0 C3.5386994 1.65139305 4.81070153 2.71605229 7 6 C7.45971784 10.96495273 7.15065843 14.06167696 4 18 C0.57823311 20.56632517 -2.84640421 20.36435051 -7 20 C-9.82275936 18.74544028 -11.46288541 17.71615278 -13.3125 15.25 C-14.32453615 11.93788168 -14.42314481 9.44560774 -14 6 C-9.5871552 0.65813524 -6.862333 -0.46524292 0 0 Z " fill="#323639" transform="translate(1038,97)"/>
<path d="M0 0 C3.5386994 1.65139305 4.81070153 2.71605229 7 6 C7.45971784 10.96495273 7.15065843 14.06167696 4 18 C0.57823311 20.56632517 -2.84640421 20.36435051 -7 20 C-9.82275936 18.74544028 -11.46288541 17.71615278 -13.3125 15.25 C-14.32453615 11.93788168 -14.42314481 9.44560774 -14 6 C-9.5871552 0.65813524 -6.862333 -0.46524292 0 0 Z " fill="#323639" transform="translate(598,97)"/>
<path d="M0 0 C3.5386994 1.65139305 4.81070153 2.71605229 7 6 C7.45971784 10.96495273 7.15065843 14.06167696 4 18 C0.57823311 20.56632517 -2.84640421 20.36435051 -7 20 C-9.82275936 18.74544028 -11.46288541 17.71615278 -13.3125 15.25 C-14.32453615 11.93788168 -14.42314481 9.44560774 -14 6 C-9.5871552 0.65813524 -6.862333 -0.46524292 0 0 Z " fill="#323639" transform="translate(528,97)"/>
<path d="M0 0 C3.5386994 1.65139305 4.81070153 2.71605229 7 6 C7.45971784 10.96495273 7.15065843 14.06167696 4 18 C0.57823311 20.56632517 -2.84640421 20.36435051 -7 20 C-9.82275936 18.74544028 -11.46288541 17.71615278 -13.3125 15.25 C-14.32453615 11.93788168 -14.42314481 9.44560774 -14 6 C-9.5871552 0.65813524 -6.862333 -0.46524292 0 0 Z " fill="#323639" transform="translate(178,97)"/>
<path d="M0 0 C4.6 2.2 4.6 2.2 6 5 C6.92390453 13.69379015 6.92390453 13.69379015 4.1875 17.5625 C0.16142059 20.20820932 -3.27042662 20.40772184 -8 20 C-10.75329021 18.20437595 -12.52627461 16.94745078 -14 14 C-14.70153846 6.86769231 -14.70153846 6.86769231 -11.625 3.0625 C-7.531976 -0.15344743 -5.22213247 -0.35404288 0 0 Z " fill="#2F3337" transform="translate(931,97)"/>
<path d="M0 0 C4.6 2.2 4.6 2.2 6 5 C6.92390453 13.69379015 6.92390453 13.69379015 4.1875 17.5625 C0.16142059 20.20820932 -3.27042662 20.40772184 -8 20 C-10.75329021 18.20437595 -12.52627461 16.94745078 -14 14 C-14.70153846 6.86769231 -14.70153846 6.86769231 -11.625 3.0625 C-7.531976 -0.15344743 -5.22213247 -0.35404288 0 0 Z " fill="#2F3337" transform="translate(363,97)"/>
<path d="M0 0 C3.5386994 1.65139305 4.81070153 2.71605229 7 6 C7.45971784 10.96495273 7.15065843 14.06167696 4 18 C0.57080428 20.57189679 -2.83939486 20.502142 -7 20 C-11.3287037 17.63888889 -11.3287037 17.63888889 -13 15 C-13.85918842 11.48251721 -13.85918842 8.51748279 -13 5 C-9.90681811 0.1160286 -5.49501165 -0.79927442 0 0 Z " fill="#2F3337" transform="translate(1014,97)"/>
<path d="M0 0 C2.87305972 1.40460697 4.74510999 2.74510999 7 5 C7.76658258 9.5370992 7.57726182 13.04453215 5.1875 17 C2.33756556 19.60565434 0.45051314 19.95828582 -3.375 20.3125 C-7.59334314 19.94884973 -9.04884992 18.95115008 -12 16 C-13.60086627 12.79826746 -13.49917089 9.47422941 -13 6 C-9.33747506 0.26204426 -6.68906908 -0.45349621 0 0 Z " fill="#303438" transform="translate(834,97)"/>
<path d="M0 0 C3.5386994 1.65139305 4.81070153 2.71605229 7 6 C7.45971784 10.96495273 7.15065843 14.06167696 4 18 C0.57080428 20.57189679 -2.83939486 20.502142 -7 20 C-11.3287037 17.63888889 -11.3287037 17.63888889 -13 15 C-13.85918842 11.48251721 -13.85918842 8.51748279 -13 5 C-9.90681811 0.1160286 -5.49501165 -0.79927442 0 0 Z " fill="#2F3337" transform="translate(705,97)"/>
<path d="M0 0 C2.87305972 1.40460697 4.74510999 2.74510999 7 5 C7.76658258 9.5370992 7.57726182 13.04453215 5.1875 17 C2.33756556 19.60565434 0.45051314 19.95828582 -3.375 20.3125 C-7.59334314 19.94884973 -9.04884992 18.95115008 -12 16 C-13.60086627 12.79826746 -13.49917089 9.47422941 -13 6 C-9.33747506 0.26204426 -6.68906908 -0.45349621 0 0 Z " fill="#303438" transform="translate(681,97)"/>
<path d="M0 0 C3.5386994 1.65139305 4.81070153 2.71605229 7 6 C7.45971784 10.96495273 7.15065843 14.06167696 4 18 C0.57080428 20.57189679 -2.83939486 20.502142 -7 20 C-11.3287037 17.63888889 -11.3287037 17.63888889 -13 15 C-13.85918842 11.48251721 -13.85918842 8.51748279 -13 5 C-9.90681811 0.1160286 -5.49501165 -0.79927442 0 0 Z " fill="#2F3337" transform="translate(309,97)"/>
<path d="M0 0 C2.0625 1.6875 2.0625 1.6875 3 4 C3 5.98 3 7.96 3 10 C-1.29 10 -5.58 10 -10 10 C-9.34 11.32 -8.68 12.64 -8 14 C-4.36603322 15.02699061 -1.58128182 15.23967448 2 14 C2 15.32 2 16.64 2 18 C-1.71616032 19.1891713 -5.12097502 19.34026535 -9 19 C-12.38939556 16.86320715 -13.72582557 15.8225233 -15 12 C-15.38887761 7.80012182 -15.45908323 5.70392762 -13.125 2.125 C-9.07529783 -1.92470217 -5.32635624 -1.2486696 0 0 Z " fill="#2F3236" transform="translate(970,98)"/>
<path d="M0 0 C3.75 0.3125 3.75 0.3125 6.6875 1.875 C8.75 4.3125 8.75 4.3125 9.0625 8.0625 C8.959375 9.135 8.85625 10.2075 8.75 11.3125 C4.46 11.3125 0.17 11.3125 -4.25 11.3125 C-3.59 12.6325 -2.93 13.9525 -2.25 15.3125 C1.38396678 16.33949061 4.16871818 16.55217448 7.75 15.3125 C7.75 16.6325 7.75 17.9525 7.75 19.3125 C4.03383968 20.5016713 0.62902498 20.65276535 -3.25 20.3125 C-6.63939556 18.17570715 -7.97582557 17.1350233 -9.25 13.3125 C-9.625 9.9375 -9.625 9.9375 -9.25 6.3125 C-6.8125 3.4375 -6.8125 3.4375 -4.25 1.3125 C-3.25 0.3125 -3.25 0.3125 0 0 Z " fill="#2F3336" transform="translate(631.25,96.6875)"/>
<path d="M0 0 C2.0625 1.6875 2.0625 1.6875 3 4 C3 5.98 3 7.96 3 10 C-1.29 10 -5.58 10 -10 10 C-9.34 11.32 -8.68 12.64 -8 14 C-4.36603322 15.02699061 -1.58128182 15.23967448 2 14 C2 15.32 2 16.64 2 18 C-1.71616032 19.1891713 -5.12097502 19.34026535 -9 19 C-12.38939556 16.86320715 -13.72582557 15.8225233 -15 12 C-15.38887761 7.80012182 -15.45908323 5.70392762 -13.125 2.125 C-9.07529783 -1.92470217 -5.32635624 -1.2486696 0 0 Z " fill="#2F3236" transform="translate(483,98)"/>
<path d="M0 0 C1.32 0 2.64 0 4 0 C4.33 5.94 4.66 11.88 5 18 C5.886875 16.68 6.77375 15.36 7.6875 14 C9.19921875 11.75 9.19921875 11.75 11 10 C13.70703125 9.75 13.70703125 9.75 16 10 C14.47291037 13.43595166 12.40072955 16.11912454 10 19 C11.17611603 21.77991061 12.68480049 23.9065289 14.625 26.1875 C17 29 17 29 17 30 C14.73828125 30.25 14.73828125 30.25 12 30 C9.98046875 28.25 9.98046875 28.25 8.1875 26 C7.58292969 25.2575 6.97835938 24.515 6.35546875 23.75 C5.68451172 22.88375 5.68451172 22.88375 5 22 C4.67 24.64 4.34 27.28 4 30 C2.68 30 1.36 30 0 30 C0 20.1 0 10.2 0 0 Z " fill="#282C2F" transform="translate(1050,87)"/>
<path d="M0 0 C1.32 0 2.64 0 4 0 C4.33 5.94 4.66 11.88 5 18 C5.86625 16.68 6.7325 15.36 7.625 14 C9.265625 11.78125 9.265625 11.78125 11 10 C14.375 9.5 14.375 9.5 17 10 C16.57847656 10.55429688 16.15695312 11.10859375 15.72265625 11.6796875 C15.17480469 12.40414062 14.62695312 13.12859375 14.0625 13.875 C13.51722656 14.59429687 12.97195313 15.31359375 12.41015625 16.0546875 C10.96035376 17.94357079 10.96035376 17.94357079 10 20 C10.5053125 20.55429688 11.010625 21.10859375 11.53125 21.6796875 C12.1809375 22.40414062 12.830625 23.12859375 13.5 23.875 C14.1496875 24.59429687 14.799375 25.31359375 15.46875 26.0546875 C17 28 17 28 17 30 C14.875 30.4375 14.875 30.4375 12 30 C9.66537246 27.916878 7.72024819 25.61288556 6 23 C6 22.34 6 21.68 6 21 C5.34 21 4.68 21 4 21 C4 23.97 4 26.94 4 30 C2.68 30 1.36 30 0 30 C0 20.1 0 10.2 0 0 Z " fill="#24282C" transform="translate(717,87)"/>
<path d="M0 0 C1.65 0 3.3 0 5 0 C5.64910154 1.58199631 6.29414694 3.16565724 6.9375 4.75 C7.29714844 5.63171875 7.65679688 6.5134375 8.02734375 7.421875 C9 10 9 10 10 14 C11.65 9.38 13.3 4.76 15 0 C16.65 0 18.3 0 20 0 C18.62706076 3.90428193 17.22272 7.79654436 15.8125 11.6875 C15.42513672 12.79029297 15.03777344 13.89308594 14.63867188 15.02929688 C10.83350619 25.43846912 10.83350619 25.43846912 6 29 C3.1875 29.3125 3.1875 29.3125 1 29 C1 27.68 1 26.36 1 25 C1.804375 24.7525 2.60875 24.505 3.4375 24.25 C6.10800991 23.29636393 6.10800991 23.29636393 6.74975586 21.20605469 C7.05494499 18.51562638 6.53702795 16.97333572 5.56640625 14.453125 C5.0878418 13.18662109 5.0878418 13.18662109 4.59960938 11.89453125 C4.25736328 11.02183594 3.91511719 10.14914063 3.5625 9.25 C3.22412109 8.36183594 2.88574219 7.47367187 2.53710938 6.55859375 C1.70109106 4.36846127 0.85514209 2.18272086 0 0 Z " fill="#33373A" transform="translate(799,97)"/>
<path d="M0 0 C2.4375 0.375 2.4375 0.375 5 1 C5.99 1 6.98 1 8 1 C8.33 0.67 8.66 0.34 9 0 C10.99952758 -0.04346799 13.00039988 -0.039992 15 0 C15.99 0 16.98 0 18 0 C19.32 0 20.64 0 22 0 C21.67 0.66 21.34 1.32 21 2 C20.34 2 19.68 2 19 2 C18.67 2.66 18.34 3.32 18 4 C19.65 4.66 21.3 5.32 23 6 C22.67 7.32 22.34 8.64 22 10 C20.02 10 18.04 10 16 10 C16 9.34 16 8.68 16 8 C15.01 8.66 14.02 9.32 13 10 C9.71484375 10.30078125 9.71484375 10.30078125 5.9375 10.3125 C4.06384766 10.33763672 4.06384766 10.33763672 2.15234375 10.36328125 C0.59193359 10.18345703 0.59193359 10.18345703 -1 10 C-3 7 -3 7 -2.75 4.4375 C-2 2 -2 2 0 0 Z " fill="#ACAEAF" transform="translate(240,148)"/>
<path d="M0 0 C1.65 0 3.3 0 5 0 C5.33 0.66 5.66 1.32 6 2 C6.99 1.34 7.98 0.68 9 0 C12.5625 0.1875 12.5625 0.1875 16 1 C18.52775351 4.79163027 18.22443035 7.80874031 18.125 12.1875 C18.11597656 12.93708984 18.10695313 13.68667969 18.09765625 14.45898438 C18.07412578 16.30612654 18.03825561 18.15310412 18 20 C16.68 20 15.36 20 14 20 C13.93941406 19.00097656 13.87882813 18.00195312 13.81640625 16.97265625 C13.69072266 15.03712891 13.69072266 15.03712891 13.5625 13.0625 C13.48128906 11.77472656 13.40007813 10.48695312 13.31640625 9.16015625 C13.35080812 6.13976043 13.35080812 6.13976043 12 5 C9.5 4.83333333 9.5 4.83333333 7 5 C5.05909174 6.94090826 5.60080565 10.47293902 5.4375 13.0625 C5.35371094 14.35285156 5.26992188 15.64320312 5.18359375 16.97265625 C5.12300781 17.97167969 5.06242188 18.97070312 5 20 C3.35 20 1.7 20 0 20 C0 13.4 0 6.8 0 0 Z " fill="#2C3034" transform="translate(562,97)"/>
<path d="M0 0 C1.65 0 3.3 0 5 0 C5.33 0.66 5.66 1.32 6 2 C6.99 1.34 7.98 0.68 9 0 C12.5625 0.1875 12.5625 0.1875 16 1 C18.52775351 4.79163027 18.22443035 7.80874031 18.125 12.1875 C18.11597656 12.93708984 18.10695313 13.68667969 18.09765625 14.45898438 C18.07412578 16.30612654 18.03825561 18.15310412 18 20 C16.68 20 15.36 20 14 20 C13.93941406 19.00097656 13.87882812 18.00195312 13.81640625 16.97265625 C13.69072266 15.03712891 13.69072266 15.03712891 13.5625 13.0625 C13.48128906 11.77472656 13.40007812 10.48695312 13.31640625 9.16015625 C13.35080812 6.13976043 13.35080812 6.13976043 12 5 C9.5 4.83333333 9.5 4.83333333 7 5 C5.05909174 6.94090826 5.60080565 10.47293902 5.4375 13.0625 C5.35371094 14.35285156 5.26992188 15.64320312 5.18359375 16.97265625 C5.12300781 17.97167969 5.06242187 18.97070312 5 20 C3.35 20 1.7 20 0 20 C0 13.4 0 6.8 0 0 Z " fill="#2C3034" transform="translate(374,97)"/>
<path d="M0 0 C1.65 0 3.3 0 5 0 C5 0.66 5 1.32 5 2 C5.99 1.34 6.98 0.68 8 0 C11.46883989 -0.44283062 13.26719644 -0.50783155 16.17578125 1.5078125 C18.71991381 4.9835225 18.43949443 8.12485202 18.25 12.25 C18.23195313 12.99507812 18.21390625 13.74015625 18.1953125 14.5078125 C18.14835649 16.33909701 18.07661652 18.16971649 18 20 C16.35 20 14.7 20 13 20 C12.67 15.05 12.34 10.1 12 5 C10.02 5 8.04 5 6 5 C4.58365167 7.83269666 4.6536995 10.47466438 4.4375 13.625 C4.35371094 14.81351563 4.26992188 16.00203125 4.18359375 17.2265625 C4.12300781 18.14179687 4.06242188 19.05703125 4 20 C2.68 20 1.36 20 0 20 C0 13.4 0 6.8 0 0 Z " fill="#383C40" transform="translate(895,97)"/>
<path d="M0 0 C1.65 0 3.3 0 5 0 C5 0.66 5 1.32 5 2 C5.99 1.34 6.98 0.68 8 0 C11.46883989 -0.44283062 13.26719644 -0.50783155 16.17578125 1.5078125 C18.71991381 4.9835225 18.43949443 8.12485202 18.25 12.25 C18.23195312 12.99507812 18.21390625 13.74015625 18.1953125 14.5078125 C18.14835649 16.33909701 18.07661652 18.16971649 18 20 C16.35 20 14.7 20 13 20 C12.67 15.05 12.34 10.1 12 5 C10.02 5 8.04 5 6 5 C4.58365167 7.83269666 4.6536995 10.47466438 4.4375 13.625 C4.35371094 14.81351563 4.26992187 16.00203125 4.18359375 17.2265625 C4.12300781 18.14179687 4.06242188 19.05703125 4 20 C2.68 20 1.36 20 0 20 C0 13.4 0 6.8 0 0 Z " fill="#383C40" transform="translate(224,97)"/>
<path d="M0 0 C1.65 0 3.3 0 5 0 C5.06058594 0.99902344 5.12117187 1.99804688 5.18359375 3.02734375 C5.26738281 4.31769531 5.35117187 5.60804687 5.4375 6.9375 C5.51871094 8.22527344 5.59992187 9.51304688 5.68359375 10.83984375 C5.64919188 13.86023957 5.64919188 13.86023957 7 15 C8.66617115 15.04063832 10.33388095 15.042721 12 15 C13.41634833 12.16730334 13.3463005 9.52533562 13.5625 6.375 C13.64628906 5.18648438 13.73007812 3.99796875 13.81640625 2.7734375 C13.87699219 1.85820313 13.93757812 0.94296875 14 0 C15.32 0 16.64 0 18 0 C18 6.6 18 13.2 18 20 C16.68 20 15.36 20 14 20 C13.67 19.34 13.34 18.68 13 18 C12.01 18.66 11.02 19.32 10 20 C7.0625 20.4375 7.0625 20.4375 4 20 C0.8983454 17.09324291 0.05177577 15.49963616 -0.390625 11.23046875 C-0.36431837 9.88225415 -0.31701804 8.53430482 -0.25 7.1875 C-0.23195313 6.49462891 -0.21390625 5.80175781 -0.1953125 5.08789062 C-0.14851064 3.39132336 -0.07677624 1.69547524 0 0 Z " fill="#373B3E" transform="translate(845,97)"/>
<path d="M0 0 C1.65 0 3.3 0 5 0 C5.06058594 0.99902344 5.12117188 1.99804688 5.18359375 3.02734375 C5.26738281 4.31769531 5.35117187 5.60804687 5.4375 6.9375 C5.51871094 8.22527344 5.59992188 9.51304688 5.68359375 10.83984375 C5.64919188 13.86023957 5.64919188 13.86023957 7 15 C8.66617115 15.04063832 10.33388095 15.042721 12 15 C13.41634833 12.16730334 13.3463005 9.52533562 13.5625 6.375 C13.64628906 5.18648438 13.73007812 3.99796875 13.81640625 2.7734375 C13.87699219 1.85820313 13.93757813 0.94296875 14 0 C15.32 0 16.64 0 18 0 C18 6.6 18 13.2 18 20 C16.68 20 15.36 20 14 20 C13.67 19.34 13.34 18.68 13 18 C12.01 18.66 11.02 19.32 10 20 C7.0625 20.4375 7.0625 20.4375 4 20 C0.8983454 17.09324291 0.05177577 15.49963616 -0.390625 11.23046875 C-0.36431837 9.88225415 -0.31701804 8.53430482 -0.25 7.1875 C-0.23195313 6.49462891 -0.21390625 5.80175781 -0.1953125 5.08789062 C-0.14851064 3.39132336 -0.07677624 1.69547524 0 0 Z " fill="#373B3E" transform="translate(445,97)"/>
<path d="M0 0 C1.32 0 2.64 0 4 0 C4.33 0.66 4.66 1.32 5 2 C5.99 1.34 6.98 0.68 8 0 C14.45283019 0.45283019 14.45283019 0.45283019 17 3 C17.14517744 5.9093558 17.18630796 8.719946 17.125 11.625 C17.11597656 12.42679688 17.10695313 13.22859375 17.09765625 14.0546875 C17.07406223 16.03658523 17.03819065 18.01832981 17 20 C15.68 20 14.36 20 13 20 C12.93941406 19.00097656 12.87882812 18.00195312 12.81640625 16.97265625 C12.69072266 15.03712891 12.69072266 15.03712891 12.5625 13.0625 C12.48128906 11.77472656 12.40007812 10.48695312 12.31640625 9.16015625 C12.35080812 6.13976043 12.35080812 6.13976043 11 5 C8.5 4.83333333 8.5 4.83333333 6 5 C4.05909174 6.94090826 4.60080565 10.47293902 4.4375 13.0625 C4.35371094 14.35285156 4.26992188 15.64320312 4.18359375 16.97265625 C4.12300781 17.97167969 4.06242187 18.97070312 4 20 C2.68 20 1.36 20 0 20 C0 13.4 0 6.8 0 0 Z " fill="#282C30" transform="translate(423,97)"/>
<path d="M0 0 C1.32 0 2.64 0 4 0 C4 7.92 4 15.84 4 24 C7.63 24 11.26 24 15 24 C15 25.32 15 26.64 15 28 C10.05 28 5.1 28 0 28 C0 18.76 0 9.52 0 0 Z " fill="#24282B" transform="translate(147,89)"/>
<path d="M0 0 C0 1.98 0 3.96 0 6 C1.65 6 3.3 6 5 6 C5 7.32 5 8.64 5 10 C3.35 10 1.7 10 0 10 C0 13.96 0 17.92 0 22 C1.65 22 3.3 22 5 22 C5 23.32 5 24.64 5 26 C1.625 26.125 1.625 26.125 -2 26 C-4 24 -4 24 -4.1953125 20.7421875 C-4.17210937 19.46601562 -4.14890625 18.18984375 -4.125 16.875 C-4.10695313 15.59367187 -4.08890625 14.31234375 -4.0703125 12.9921875 C-4.04710937 12.00476563 -4.02390625 11.01734375 -4 10 C-5.32 10 -6.64 10 -8 10 C-8 8.68 -8 7.36 -8 6 C-6.68 6 -5.36 6 -4 6 C-4 4.35 -4 2.7 -4 1 C-2 0 -2 0 0 0 Z " fill="#303337" transform="translate(948,91)"/>
<path d="M0 0 C0 1.98 0 3.96 0 6 C1.65 6 3.3 6 5 6 C5 7.32 5 8.64 5 10 C3.35 10 1.7 10 0 10 C0 13.96 0 17.92 0 22 C1.65 22 3.3 22 5 22 C5 23.32 5 24.64 5 26 C1.625 26.125 1.625 26.125 -2 26 C-4 24 -4 24 -4.1953125 20.7421875 C-4.17210937 19.46601562 -4.14890625 18.18984375 -4.125 16.875 C-4.10695313 15.59367187 -4.08890625 14.31234375 -4.0703125 12.9921875 C-4.04710937 12.00476563 -4.02390625 11.01734375 -4 10 C-5.32 10 -6.64 10 -8 10 C-8 8.68 -8 7.36 -8 6 C-6.68 6 -5.36 6 -4 6 C-4 4.35 -4 2.7 -4 1 C-2 0 -2 0 0 0 Z " fill="#303337" transform="translate(765,91)"/>
<path d="M0 0 C1.32 0 2.64 0 4 0 C5.921875 2.40625 5.921875 2.40625 7.75 5.5 C8.67039062 7.03140625 8.67039062 7.03140625 9.609375 8.59375 C10.06828125 9.3878125 10.5271875 10.181875 11 11 C11.33 7.37 11.66 3.74 12 0 C12.99 0 13.98 0 15 0 C15 5.94 15 11.88 15 18 C13.68 18 12.36 18 11 18 C9.078125 15.59375 9.078125 15.59375 7.25 12.5 C6.63640625 11.4790625 6.0228125 10.458125 5.390625 9.40625 C4.70226562 8.21515625 4.70226562 8.21515625 4 7 C3.67 10.63 3.34 14.26 3 18 C2.01 18 1.02 18 0 18 C0 12.06 0 6.12 0 0 Z " fill="#D2D2D3" transform="translate(21,14)"/>
<path d="M0 0 C0.66 0.33 1.32 0.66 2 1 C1.67 2.32 1.34 3.64 1 5 C-0.11375 4.95875 -1.2275 4.9175 -2.375 4.875 C-6.04366025 4.58878141 -6.04366025 4.58878141 -8 7 C-8.24212873 8.98128508 -8.24212873 8.98128508 -8.125 11.125 C-8.08375 12.40375 -8.0425 13.6825 -8 15 C-4.7 15 -1.4 15 2 15 C2 16.32 2 17.64 2 19 C-1.63782632 20.21260877 -4.17735999 20.39544552 -8 20 C-11.58311824 17.42950213 -12.78702567 15.74541015 -14 11.5 C-14 6.67226887 -12.52272814 4.57711129 -9.25 1.1875 C-6.0822909 -0.48434647 -3.52419648 -0.26105159 0 0 Z " fill="#33373B" transform="translate(344,97)"/>
<path d="M0 0 C0.66 0 1.32 0 2 0 C2.33 2.31 2.66 4.62 3 7 C3.33 6.67 3.66 6.34 4 6 C6.77193929 5.70821692 8.41409825 5.63633684 10.8125 7.125 C12.55957504 9.88353953 12.39203417 11.79838764 12 15 C11.0625 17.375 11.0625 17.375 9 19 C6.03 19 3.06 19 0 19 C0 12.73 0 6.46 0 0 Z " fill="#DFDFE0" transform="translate(76,13)"/>
<path d="M0 0 C0.33 1.32 0.66 2.64 1 4 C-1.64 4 -4.28 4 -7 4 C-6.33029489 7.06399866 -6.33029489 7.06399866 -4.15234375 8.16796875 C-3.05599609 8.67263672 -3.05599609 8.67263672 -1.9375 9.1875 C-1.20402344 9.53167969 -0.47054687 9.87585938 0.28515625 10.23046875 C0.85105469 10.48441406 1.41695312 10.73835938 2 11 C2.3125 13.8125 2.3125 13.8125 2 17 C-0.90986227 19.64532933 -2.75941317 19.98368903 -6.6875 20.25 C-10 20 -10 20 -12 19 C-12 17.68 -12 16.36 -12 15 C-9.98177083 15.26041667 -7.96354167 15.52083333 -5.9453125 15.78125 C-3.99501656 16.0372485 -3.99501656 16.0372485 -2 16 C-2.64659324 12.92636444 -2.64659324 12.92636444 -4.8125 12.0078125 C-5.534375 11.71648437 -6.25625 11.42515625 -7 11.125 C-9.1875 10.1171875 -9.1875 10.1171875 -11 9 C-12 6.25 -12 6.25 -12 4 C-7.99899414 0.12023674 -5.51903037 -0.43286513 0 0 Z " fill="#2D3135" transform="translate(784,97)"/>
<path d="M0 0 C1.9375 1.0625 1.9375 1.0625 3 3 C3.36528977 6.4093712 3.6140629 8.88023824 1.9375 11.9375 C-1.11976176 13.6140629 -3.5906288 13.36528977 -7 13 C-8.9375 11.9375 -8.9375 11.9375 -10 10 C-10.36528977 6.5906288 -10.6140629 4.11976176 -8.9375 1.0625 C-5.88023824 -0.6140629 -3.4093712 -0.36528977 0 0 Z " fill="#E2E3E3" transform="translate(114,19)"/>
<path d="M0 0 C0 1.98 0 3.96 0 6 C1.65 6 3.3 6 5 6 C5 6.99 5 7.98 5 9 C3.35 9 1.7 9 0 9 C0.33 12.96 0.66 16.92 1 21 C2.32 21.33 3.64 21.66 5 22 C5 23.32 5 24.64 5 26 C1.625 26.125 1.625 26.125 -2 26 C-4 24 -4 24 -4.1953125 20.5234375 C-4.18201493 19.14049032 -4.15816232 17.75761346 -4.125 16.375 C-4.11597656 15.66859375 -4.10695313 14.9621875 -4.09765625 14.234375 C-4.07407603 12.48943902 -4.03820461 10.74467705 -4 9 C-4.99 9 -5.98 9 -7 9 C-7 8.01 -7 7.02 -7 6 C-6.01 6 -5.02 6 -4 6 C-4 4.35 -4 2.7 -4 1 C-2 0 -2 0 0 0 Z " fill="#282C30" transform="translate(615,91)"/>
<path d="M0 0 C0 1.98 0 3.96 0 6 C1.65 6 3.3 6 5 6 C5 6.99 5 7.98 5 9 C3.35 9 1.7 9 0 9 C0.33 12.96 0.66 16.92 1 21 C2.32 21.33 3.64 21.66 5 22 C5 23.32 5 24.64 5 26 C1.625 26.125 1.625 26.125 -2 26 C-4 24 -4 24 -4.1953125 20.5234375 C-4.18201493 19.14049032 -4.15816232 17.75761346 -4.125 16.375 C-4.11597656 15.66859375 -4.10695313 14.9621875 -4.09765625 14.234375 C-4.07407603 12.48943902 -4.03820461 10.74467705 -4 9 C-4.99 9 -5.98 9 -7 9 C-7 8.01 -7 7.02 -7 6 C-6.01 6 -5.02 6 -4 6 C-4 4.35 -4 2.7 -4 1 C-2 0 -2 0 0 0 Z " fill="#282C30" transform="translate(507,91)"/>
<path d="M0 0 C0 1.98 0 3.96 0 6 C1.65 6 3.3 6 5 6 C5 6.99 5 7.98 5 9 C3.35 9 1.7 9 0 9 C0.33 12.96 0.66 16.92 1 21 C2.32 21.33 3.64 21.66 5 22 C5 23.32 5 24.64 5 26 C1.625 26.125 1.625 26.125 -2 26 C-4 24 -4 24 -4.1953125 20.5234375 C-4.18201493 19.14049032 -4.15816232 17.75761346 -4.125 16.375 C-4.11597656 15.66859375 -4.10695313 14.9621875 -4.09765625 14.234375 C-4.07407603 12.48943902 -4.03820461 10.74467705 -4 9 C-4.99 9 -5.98 9 -7 9 C-7 8.01 -7 7.02 -7 6 C-6.01 6 -5.02 6 -4 6 C-4 4.35 -4 2.7 -4 1 C-2 0 -2 0 0 0 Z " fill="#282C30" transform="translate(403,91)"/>
<path d="M0 0 C0 1.98 0 3.96 0 6 C1.65 6 3.3 6 5 6 C5 6.99 5 7.98 5 9 C3.35 9 1.7 9 0 9 C0.33 12.96 0.66 16.92 1 21 C2.32 21.33 3.64 21.66 5 22 C5 23.32 5 24.64 5 26 C1.625 26.125 1.625 26.125 -2 26 C-4 24 -4 24 -4.1953125 20.5234375 C-4.18201493 19.14049032 -4.15816232 17.75761346 -4.125 16.375 C-4.11597656 15.66859375 -4.10695313 14.9621875 -4.09765625 14.234375 C-4.07407603 12.48943902 -4.03820461 10.74467705 -4 9 C-4.99 9 -5.98 9 -7 9 C-7 8.01 -7 7.02 -7 6 C-6.01 6 -5.02 6 -4 6 C-4 4.35 -4 2.7 -4 1 C-2 0 -2 0 0 0 Z " fill="#282C30" transform="translate(288,91)"/>
<path d="M0 0 C1.9375 1.125 1.9375 1.125 3 3 C3.54068562 6.63031776 3.46379841 8.32214079 1.375 11.375 C-1.67785921 13.46379841 -3.36968224 13.54068562 -7 13 C-8.875 11.9375 -8.875 11.9375 -10 10 C-10.36528977 6.5906288 -10.6140629 4.11976176 -8.9375 1.0625 C-5.88023824 -0.6140629 -3.4093712 -0.36528977 0 0 Z " fill="#D7D8D8" transform="translate(100,19)"/>
<path d="M0 0 C1.9375 1.125 1.9375 1.125 3 3 C3.54068562 6.63031776 3.46379841 8.32214079 1.375 11.375 C-1.67785921 13.46379841 -3.36968224 13.54068562 -7 13 C-8.875 11.9375 -8.875 11.9375 -10 10 C-10.36528977 6.5906288 -10.6140629 4.11976176 -8.9375 1.0625 C-5.88023824 -0.6140629 -3.4093712 -0.36528977 0 0 Z " fill="#D7D8D8" transform="translate(49,19)"/>
<path d="M0 0 C1.65 0 3.3 0 5 0 C5 9.24 5 18.48 5 28 C3.35 28 1.7 28 0 28 C0 18.76 0 9.52 0 0 Z " fill="#373B3E" transform="translate(551,89)"/>
<path d="M0 0 C2.64 0 5.28 0 8 0 C8.33 1.98 8.66 3.96 9 6 C9.66 6 10.32 6 11 6 C11.33 4.02 11.66 2.04 12 0 C12.99 0.33 13.98 0.66 15 1 C15.6875 3.0625 15.6875 3.0625 16 5 C16.66 3.35 17.32 1.7 18 0 C18.66 0 19.32 0 20 0 C19.745504 1.48206495 19.47088238 2.96068615 19.1875 4.4375 C19.03667969 5.26121094 18.88585937 6.08492188 18.73046875 6.93359375 C18.36888672 7.95646484 18.36888672 7.95646484 18 9 C17.01 9.33 16.02 9.66 15 10 C14.67 8.35 14.34 6.7 14 5 C13.34 5 12.68 5 12 5 C11.67 6.65 11.34 8.3 11 10 C10.34 10 9.68 10 9 10 C8.67 9.34 8.34 8.68 8 8 C7.46375 8.33 6.9275 8.66 6.375 9 C3.4608939 10.22699204 1.13132292 10.14233286 -2 10 C-2 9.34 -2 8.68 -2 8 C-0.35 8 1.3 8 3 8 C3 7.34 3 6.68 3 6 C0.525 5.01 0.525 5.01 -2 4 C-1.34 2.68 -0.68 1.36 0 0 Z " fill="#E3E3E4" transform="translate(175,286)"/>
<path d="M0 0 C1.32 0 2.64 0 4 0 C4.16928239 2.68735788 4.3354953 5.37484884 4.5 8.0625 C4.54769531 8.81466797 4.59539063 9.56683594 4.64453125 10.34179688 C4.85822446 13.86773492 4.99729204 17.33544848 4.96875 20.87109375 C4.84034756 24.0322718 4.84034756 24.0322718 6 27 C5.34 27 4.68 27 4 27 C4 27.99 4 28.98 4 30 C2.68 30 1.36 30 0 30 C0 20.1 0 10.2 0 0 Z " fill="#25292C" transform="translate(645,87)"/>
<path d="M0 0 C1.65 0 3.3 0 5 0 C5.33 0.66 5.66 1.32 6 2 C6.66 1.34 7.32 0.68 8 0 C9.32 0 10.64 0 12 0 C12 1.32 12 2.64 12 4 C10.02 4.33 8.04 4.66 6 5 C5.67 9.95 5.34 14.9 5 20 C3.35 20 1.7 20 0 20 C0 13.4 0 6.8 0 0 Z " fill="#393D40" transform="translate(869,97)"/>
<path d="M0 0 C3.71599191 -0.20086443 4.77208445 -0.1519437 8 2 C8.66 1.34 9.32 0.68 10 0 C12.625 -0.125 12.625 -0.125 15 0 C14.67 0.66 14.34 1.32 14 2 C13.01 1.67 12.02 1.34 11 1 C11 1.99 11 2.98 11 4 C12.32 4.33 13.64 4.66 15 5 C14.67 6.65 14.34 8.3 14 10 C9.05 10 4.1 10 -1 10 C-1.33 8.68 -1.66 7.36 -2 6 C1 4 1 4 4 4 C4 3.34 4 2.68 4 2 C2.35 2.33 0.7 2.66 -1 3 C-0.67 2.01 -0.34 1.02 0 0 Z " fill="#9B9D9F" transform="translate(156,286)"/>
<path d="M0 0 C3.5 0.25 3.5 0.25 5.5 2.25 C5.765625 4.125 5.765625 4.125 5.75 6.25 C5.75515625 6.95125 5.7603125 7.6525 5.765625 8.375 C5.5 10.25 5.5 10.25 3.5 12.25 C0 12.5625 0 12.5625 -3.5 12.25 C-5.94897847 8.57653229 -5.81537716 6.58643601 -5.5 2.25 C-3.5 0.25 -3.5 0.25 0 0 Z " fill="#F4F4F4" transform="translate(1034.5,100.75)"/>
<path d="M0 0 C3.5 0.25 3.5 0.25 5.5 2.25 C5.765625 4.125 5.765625 4.125 5.75 6.25 C5.75515625 6.95125 5.7603125 7.6525 5.765625 8.375 C5.5 10.25 5.5 10.25 3.5 12.25 C0 12.5625 0 12.5625 -3.5 12.25 C-5.94897847 8.57653229 -5.81537716 6.58643601 -5.5 2.25 C-3.5 0.25 -3.5 0.25 0 0 Z " fill="#F4F4F4" transform="translate(594.5,100.75)"/>
<path d="M0 0 C3.5 0.25 3.5 0.25 5.5 2.25 C5.765625 4.125 5.765625 4.125 5.75 6.25 C5.75515625 6.95125 5.7603125 7.6525 5.765625 8.375 C5.5 10.25 5.5 10.25 3.5 12.25 C0 12.5625 0 12.5625 -3.5 12.25 C-5.94897847 8.57653229 -5.81537716 6.58643601 -5.5 2.25 C-3.5 0.25 -3.5 0.25 0 0 Z " fill="#F4F4F4" transform="translate(524.5,100.75)"/>
<path d="M0 0 C3.5 0.25 3.5 0.25 5.5 2.25 C5.765625 4.125 5.765625 4.125 5.75 6.25 C5.75515625 6.95125 5.7603125 7.6525 5.765625 8.375 C5.5 10.25 5.5 10.25 3.5 12.25 C0 12.5625 0 12.5625 -3.5 12.25 C-5.94897847 8.57653229 -5.81537716 6.58643601 -5.5 2.25 C-3.5 0.25 -3.5 0.25 0 0 Z " fill="#F4F4F4" transform="translate(174.5,100.75)"/>
<path d="M0 0 C1.7325 0.1546875 1.7325 0.1546875 3.5 0.3125 C5.81332486 3.78248729 5.83957563 5.23759248 5.5 9.3125 C4.51 10.7975 4.51 10.7975 3.5 12.3125 C0 12.625 0 12.625 -3.5 12.3125 C-5.5 10.3125 -5.5 10.3125 -5.765625 8.4375 C-5.76046875 7.73625 -5.7553125 7.035 -5.75 6.3125 C-5.75515625 5.61125 -5.7603125 4.91 -5.765625 4.1875 C-5.23486071 0.44092852 -3.51439493 0.31378526 0 0 Z " fill="#F5F5F5" transform="translate(927.5,100.6875)"/>
<path d="M0 0 C1.7325 0.1546875 1.7325 0.1546875 3.5 0.3125 C5.81332486 3.78248729 5.83957563 5.23759248 5.5 9.3125 C4.51 10.7975 4.51 10.7975 3.5 12.3125 C0 12.625 0 12.625 -3.5 12.3125 C-5.5 10.3125 -5.5 10.3125 -5.765625 8.4375 C-5.76046875 7.73625 -5.7553125 7.035 -5.75 6.3125 C-5.75515625 5.61125 -5.7603125 4.91 -5.765625 4.1875 C-5.23486071 0.44092852 -3.51439493 0.31378526 0 0 Z " fill="#F5F5F5" transform="translate(359.5,100.6875)"/>
<path d="M0 0 C2.01822917 0.06510417 4.03645833 0.13020833 6.0546875 0.1953125 C6.10855379 2.32003826 6.14741821 4.44514902 6.1796875 6.5703125 C6.20289063 7.75367188 6.22609375 8.93703125 6.25 10.15625 C6.0546875 13.1953125 6.0546875 13.1953125 4.0546875 15.1953125 C0.4296875 15.3203125 0.4296875 15.3203125 -2.9453125 15.1953125 C-2.9453125 14.5353125 -2.9453125 13.8753125 -2.9453125 13.1953125 C-0.9653125 13.1953125 1.0146875 13.1953125 3.0546875 13.1953125 C3.0546875 12.2053125 3.0546875 11.2153125 3.0546875 10.1953125 C2.2709375 10.2365625 1.4871875 10.2778125 0.6796875 10.3203125 C-1.9453125 10.1953125 -1.9453125 10.1953125 -3.9453125 8.1953125 C-4.1953125 5.1953125 -4.1953125 5.1953125 -3.9453125 2.1953125 C-1.9453125 0.1953125 -1.9453125 0.1953125 0 0 Z " fill="#C4C5C6" transform="translate(1759.9453125,19.8046875)"/>
<path d="M0 0 C2 2 2 2 2.265625 3.875 C2.26046875 4.57625 2.2553125 5.2775 2.25 6 C2.25515625 6.70125 2.2603125 7.4025 2.265625 8.125 C2 10 2 10 0 12 C-3.10347254 12.33015665 -5.15781176 12.50531294 -7.875 10.875 C-9.52854531 8.11909116 -9.39365568 6.14924548 -9 3 C-6.78679539 -0.68867435 -4.02162985 -0.42783296 0 0 Z " fill="#F7F7F7" transform="translate(1014,101)"/>
<path d="M0 0 C2 2 2 2 2.265625 3.875 C2.26046875 4.57625 2.2553125 5.2775 2.25 6 C2.25515625 6.70125 2.2603125 7.4025 2.265625 8.125 C2 10 2 10 0 12 C-3.10347254 12.33015665 -5.15781176 12.50531294 -7.875 10.875 C-9.52854531 8.11909116 -9.39365568 6.14924548 -9 3 C-6.78679539 -0.68867435 -4.02162985 -0.42783296 0 0 Z " fill="#F7F7F7" transform="translate(705,101)"/>
<path d="M0 0 C2 2 2 2 2.265625 3.875 C2.26046875 4.57625 2.2553125 5.2775 2.25 6 C2.25515625 6.70125 2.2603125 7.4025 2.265625 8.125 C2 10 2 10 0 12 C-3.10347254 12.33015665 -5.15781176 12.50531294 -7.875 10.875 C-9.52854531 8.11909116 -9.39365568 6.14924548 -9 3 C-6.78679539 -0.68867435 -4.02162985 -0.42783296 0 0 Z " fill="#F7F7F7" transform="translate(309,101)"/>
<path d="M0 0 C2 2 2 2 2.265625 3.875 C2.26046875 4.57625 2.2553125 5.2775 2.25 6 C2.25515625 6.70125 2.2603125 7.4025 2.265625 8.125 C2 10 2 10 0 12 C-2.9375 12.375 -2.9375 12.375 -6 12 C-8.35210784 9.88310295 -8.91810953 8.55958485 -9.375 5.4375 C-9 3 -9 3 -7.875 1.1875 C-5.16554166 -0.52849028 -3.13704316 -0.333728 0 0 Z " fill="#F8F8F8" transform="translate(834,101)"/>
<path d="M0 0 C2 2 2 2 2.265625 3.875 C2.26046875 4.57625 2.2553125 5.2775 2.25 6 C2.25515625 6.70125 2.2603125 7.4025 2.265625 8.125 C2 10 2 10 0 12 C-2.9375 12.375 -2.9375 12.375 -6 12 C-8.35210784 9.88310295 -8.91810953 8.55958485 -9.375 5.4375 C-9 3 -9 3 -7.875 1.1875 C-5.16554166 -0.52849028 -3.13704316 -0.333728 0 0 Z " fill="#F8F8F8" transform="translate(681,101)"/>
<path d="M0 0 C0.99 0 1.98 0 3 0 C3 4.62 3 9.24 3 14 C3.66 14 4.32 14 5 14 C4.98839844 14.68707031 4.97679687 15.37414062 4.96484375 16.08203125 C4.95582031 16.98308594 4.94679688 17.88414063 4.9375 18.8125 C4.92009766 20.15248047 4.92009766 20.15248047 4.90234375 21.51953125 C4.88990033 24.13413791 4.88990033 24.13413791 6 27 C5.34 27 4.68 27 4 27 C4 27.99 4 28.98 4 30 C2.68 30 1.36 30 0 30 C0 20.1 0 10.2 0 0 Z " fill="#24282C" transform="translate(978,87)"/>
<path d="M0 0 C0.05386629 2.12472576 0.09273071 4.24983652 0.125 6.375 C0.14820313 7.55835938 0.17140625 8.74171875 0.1953125 9.9609375 C0 13 0 13 -2 15 C-5.625 15.125 -5.625 15.125 -9 15 C-9 14.34 -9 13.68 -9 13 C-7.5459375 12.814375 -7.5459375 12.814375 -6.0625 12.625 C-5.051875 12.41875 -4.04125 12.2125 -3 12 C-2.67 11.34 -2.34 10.68 -2 10 C-2.94875 10.04125 -3.8975 10.0825 -4.875 10.125 C-8 10 -8 10 -10 8 C-10.35571424 5.22542896 -10.36405327 3.62103204 -8.9375 1.1875 C-6.00731249 -0.60842137 -3.3527047 -0.18977574 0 0 Z " fill="#E5E5E6" transform="translate(1841,20)"/>
<path d="M0 0 C2 3 2 3 1.75 6.5625 C1 10 1 10 -1 12 C-4 12.25 -4 12.25 -7 12 C-9 10 -9 10 -9.3125 6.5625 C-9 3 -9 3 -7.875 1.0625 C-5.12198451 -0.49754211 -3.0996593 -0.39570119 0 0 Z " fill="#F1F1F2" transform="translate(658,101)"/>
<path d="M0 0 C0.99 0 1.98 0 3 0 C3 1.65 3 3.3 3 5 C3.78375 4.95875 4.5675 4.9175 5.375 4.875 C8 5 8 5 10 7 C10.25 10 10.25 10 10 13 C8 15 8 15 6.0546875 15.1953125 C4.03645833 15.13020833 2.01822917 15.06510417 0 15 C0 10.05 0 5.1 0 0 Z " fill="#BFD9FE" transform="translate(182,397)"/>
<path d="M0 0 C0.99 0 1.98 0 3 0 C3 1.65 3 3.3 3 5 C3.78375 4.95875 4.5675 4.9175 5.375 4.875 C8 5 8 5 10 7 C10.25 10 10.25 10 10 13 C8 15 8 15 6.0546875 15.1953125 C4.03645833 15.13020833 2.01822917 15.06510417 0 15 C0 10.05 0 5.1 0 0 Z " fill="#7A7D7F" transform="translate(248,15)"/>
<path d="M0 0 C3 0.25 3 0.25 5 2.25 C5.265625 4.125 5.265625 4.125 5.25 6.25 C5.25515625 6.95125 5.2603125 7.6525 5.265625 8.375 C5 10.25 5 10.25 3 12.25 C0 12.5 0 12.5 -3 12.25 C-5 10.25 -5 10.25 -5.265625 8.375 C-5.26046875 7.67375 -5.2553125 6.9725 -5.25 6.25 C-5.25515625 5.54875 -5.2603125 4.8475 -5.265625 4.125 C-4.77431879 0.65695617 -3.28862917 0.27405243 0 0 Z " fill="#F7F7F7" transform="translate(987,100.75)"/>
<path d="M0 0 C3 0.25 3 0.25 5 2.25 C5.265625 4.125 5.265625 4.125 5.25 6.25 C5.25515625 6.95125 5.2603125 7.6525 5.265625 8.375 C5 10.25 5 10.25 3 12.25 C0 12.5 0 12.5 -3 12.25 C-5 10.25 -5 10.25 -5.265625 8.375 C-5.26046875 7.67375 -5.2553125 6.9725 -5.25 6.25 C-5.25515625 5.54875 -5.2603125 4.8475 -5.265625 4.125 C-4.77431879 0.65695617 -3.28862917 0.27405243 0 0 Z " fill="#F6F7F7" transform="translate(256,100.75)"/>
<path d="M0 0 C3 0.25 3 0.25 5 2.25 C5.265625 4.125 5.265625 4.125 5.25 6.25 C5.25515625 6.95125 5.2603125 7.6525 5.265625 8.375 C5 10.25 5 10.25 3 12.25 C0 12.5 0 12.5 -3 12.25 C-5 10.25 -5 10.25 -5.265625 8.375 C-5.26046875 7.67375 -5.2553125 6.9725 -5.25 6.25 C-5.25515625 5.54875 -5.2603125 4.8475 -5.265625 4.125 C-4.77431879 0.65695617 -3.28862917 0.27405243 0 0 Z " fill="#F6F6F7" transform="translate(198,100.75)"/>
<path d="M0 0 C0.721875 0.12375 1.44375 0.2475 2.1875 0.375 C0.66041037 3.81095166 -1.41177045 6.49412454 -3.8125 9.375 C-2.63638397 12.15491061 -1.12769951 14.2815289 0.8125 16.5625 C3.1875 19.375 3.1875 19.375 3.1875 20.375 C0.95703125 20.65625 0.95703125 20.65625 -1.8125 20.375 C-4.05078125 18.40625 -4.05078125 18.40625 -6.125 15.875 C-6.82238281 15.0396875 -7.51976562 14.204375 -8.23828125 13.34375 C-9.01751953 12.36921875 -9.01751953 12.36921875 -9.8125 11.375 C-7.95804064 6.40437149 -5.81626481 0.77550197 0 0 Z " fill="#2F3337" transform="translate(1063.8125,96.625)"/>
<path d="M0 0 C1.36511719 0.1546875 1.36511719 0.1546875 2.7578125 0.3125 C2.33628906 0.86679688 1.91476562 1.42109375 1.48046875 1.9921875 C0.93261719 2.71664062 0.38476562 3.44109375 -0.1796875 4.1875 C-0.72496094 4.90679687 -1.27023437 5.62609375 -1.83203125 6.3671875 C-3.28183374 8.25607079 -3.28183374 8.25607079 -4.2421875 10.3125 C-3.736875 10.86679688 -3.2315625 11.42109375 -2.7109375 11.9921875 C-2.06125 12.71664062 -1.4115625 13.44109375 -0.7421875 14.1875 C-0.0925 14.90679687 0.5571875 15.62609375 1.2265625 16.3671875 C2.7578125 18.3125 2.7578125 18.3125 2.7578125 20.3125 C0.6328125 20.75 0.6328125 20.75 -2.2421875 20.3125 C-4.57681504 18.229378 -6.52193931 15.92538556 -8.2421875 13.3125 C-8.2421875 12.6525 -8.2421875 11.9925 -8.2421875 11.3125 C-8.9021875 10.9825 -9.5621875 10.6525 -10.2421875 10.3125 C-9.22657569 8.62982954 -8.17860559 6.96665805 -7.1171875 5.3125 C-6.53710938 4.384375 -5.95703125 3.45625 -5.359375 2.5 C-3.2421875 0.3125 -3.2421875 0.3125 0 0 Z " fill="#2F3236" transform="translate(731.2421875,96.6875)"/>
<path d="M0 0 C2 2 2 2 2.125 4.625 C2.08375 5.40875 2.0425 6.1925 2 7 C-0.64 7 -3.28 7 -6 7 C-5.67 7.99 -5.34 8.98 -5 10 C-2.69 10 -0.38 10 2 10 C1.67 10.99 1.34 11.98 1 13 C-5.34507042 13.35915493 -5.34507042 13.35915493 -7.9375 11.9375 C-9.6140629 8.88023824 -9.36528977 6.4093712 -9 3 C-6.8388936 -0.72190547 -4.01418597 -0.42704106 0 0 Z " fill="#E6E6E7" transform="translate(71,19)"/>
<path d="M0 0 C1.32 0 2.64 0 4 0 C4 1.32 4 2.64 4 4 C4.66 4 5.32 4 6 4 C5.67 9.28 5.34 14.56 5 20 C3.35 20 1.7 20 0 20 C0 13.4 0 6.8 0 0 Z " fill="#393D40" transform="translate(562,97)"/>
<path d="M0 0 C1.32 0 2.64 0 4 0 C4 1.32 4 2.64 4 4 C4.66 4 5.32 4 6 4 C5.67 9.28 5.34 14.56 5 20 C3.35 20 1.7 20 0 20 C0 13.4 0 6.8 0 0 Z " fill="#393D40" transform="translate(374,97)"/>
<path d="M0 0 C6.15234375 -0.09765625 6.15234375 -0.09765625 8 0 C9 1 9 1 9.09765625 2.84765625 C9.04882812 5.92382812 9.04882812 5.92382812 9 9 C6.69 9.33 4.38 9.66 2 10 C2 11.65 2 13.3 2 15 C1.34 15 0.68 15 0 15 C0 10.05 0 5.1 0 0 Z " fill="#DADADB" transform="translate(1867,20)"/>
<path d="M0 0 C0.99 0 1.98 0 3 0 C3.83764268 1.95649397 4.66999059 3.91525556 5.5 5.875 C5.9640625 6.96554688 6.428125 8.05609375 6.90625 9.1796875 C8 12 8 12 8 14 C7.01 14 6.02 14 5 14 C4.67 13.34 4.34 12.68 4 12 C0.97065509 11.34227572 0.97065509 11.34227572 -2 11 C-2 11.99 -2 12.98 -2 14 C-2.99 14 -3.98 14 -5 14 C-4.54636829 12.41531323 -4.08688548 10.83230076 -3.625 9.25 C-3.36976563 8.36828125 -3.11453125 7.4865625 -2.8515625 6.578125 C-2.0790066 4.23919428 -1.16374324 2.16557438 0 0 Z " fill="#818386" transform="translate(239,16)"/>
<path d="M0 0 C3.0625 0.3125 3.0625 0.3125 5 1.5 C6.0625 3.3125 6.0625 3.3125 5.875 5.875 C5.0625 8.3125 5.0625 8.3125 3.0625 10.3125 C0.0625 10.5625 0.0625 10.5625 -2.9375 10.3125 C-4.9375 8.3125 -4.9375 8.3125 -5.1875 5.3125 C-4.84687504 1.2250005 -4.07761768 0.43378911 0 0 Z " fill="#87898B" transform="translate(179.9375,19.6875)"/>
<path d="M0 0 C0.66 0 1.32 0 2 0 C2 4.95 2 9.9 2 15 C-0.31 15 -2.62 15 -5 15 C-7 13 -7 13 -7.25 10 C-7 7 -7 7 -5 5 C-3.68 5 -2.36 5 -1 5 C-0.67 3.35 -0.34 1.7 0 0 Z " fill="#4F5256" transform="translate(222,281)"/>
<path d="M0 0 C0.66 0 1.32 0 2 0 C2 4.95 2 9.9 2 15 C-0.31 15 -2.62 15 -5 15 C-7 13 -7 13 -7.25 10 C-7 7 -7 7 -5 5 C-3.68 5 -2.36 5 -1 5 C-0.67 3.35 -0.34 1.7 0 0 Z " fill="#4F5256" transform="translate(226,143)"/>
<path d="M0 0 C0.66 0 1.32 0 2 0 C2 4.95 2 9.9 2 15 C-0.31 15 -2.62 15 -5 15 C-7 13 -7 13 -7.25 10 C-7 7 -7 7 -5 5 C-3.68 5 -2.36 5 -1 5 C-0.67 3.35 -0.34 1.7 0 0 Z " fill="#4F5256" transform="translate(214,143)"/>
<path d="M0 0 C3 0.25 3 0.25 5 2.25 C5.25 5.25 5.25 5.25 5 8.25 C3 10.25 3 10.25 0.0625 10.5625 C-3 10.25 -3 10.25 -4.9375 9.0625 C-6 7.25 -6 7.25 -5.8125 4.6875 C-4.61374094 1.09122283 -3.8124642 0.31770535 0 0 Z " fill="#CFD0D0" transform="translate(1750,19.75)"/>
<path d="M0 0 C3 0.25 3 0.25 5 2.25 C5.25 5.25 5.25 5.25 5 8.25 C3 10.25 3 10.25 0.0625 10.5625 C-3 10.25 -3 10.25 -4.9375 9.0625 C-6 7.25 -6 7.25 -5.8125 4.6875 C-4.61374094 1.09122283 -3.8124642 0.31770535 0 0 Z " fill="#808285" transform="translate(265,19.75)"/>
<path d="M0 0 C2.12493141 -0.02693575 4.24995912 -0.04636628 6.375 -0.0625 C7.55835938 -0.07410156 8.74171875 -0.08570313 9.9609375 -0.09765625 C13 0 13 0 15 1 C15 3.97 15 6.94 15 10 C14.01 10 13.02 10 12 10 C12 7.36 12 4.72 12 2 C11.01 2 10.02 2 9 2 C9 4.64 9 7.28 9 10 C8.01 10 7.02 10 6 10 C6 7.36 6 4.72 6 2 C5.01 2.33 4.02 2.66 3 3 C2.67 5.31 2.34 7.62 2 10 C1.34 10 0.68 10 0 10 C0 6.7 0 3.4 0 0 Z " fill="#CCE0FE" transform="translate(194,402)"/>
<path d="M0 0 C0.66 0 1.32 0 2 0 C2.33 3.3 2.66 6.6 3 10 C4.32 8.68 5.64 7.36 7 6 C7.99 6.33 8.98 6.66 10 7 C8.68 8.32 7.36 9.64 6 11 C6.28875 11.5775 6.5775 12.155 6.875 12.75 C7.91666667 14.83333333 8.95833333 16.91666667 10 19 C7.13275314 18.42655063 6.1385485 18.1385485 4 16 C3.67 16.99 3.34 17.98 3 19 C2.01 19 1.02 19 0 19 C0 12.73 0 6.46 0 0 Z " fill="#F3F3F3" transform="translate(120,13)"/>
<path d="M0 0 C0.99 0 1.98 0 3 0 C3 1.98 3 3.96 3 6 C4.98 5.67 6.96 5.34 9 5 C8.01 5.99 7.02 6.98 6 8 C7.32 8.66 8.64 9.32 10 10 C9.67 11.32 9.34 12.64 9 14 C6.03 14 3.06 14 0 14 C0 9.38 0 4.76 0 0 Z " fill="#B1B3B4" transform="translate(474,233)"/>
<path d="M0 0 C1.32 0 2.64 0 4 0 C4 6.6 4 13.2 4 20 C2.68 20 1.36 20 0 20 C0 19.01 0 18.02 0 17 C-0.66 17 -1.32 17 -2 17 C-1.76990234 16.21882813 -1.76990234 16.21882813 -1.53515625 15.421875 C-0.86017489 12.36721485 -0.65588882 9.36984029 -0.4375 6.25 C-0.35371094 5.07953125 -0.26992188 3.9090625 -0.18359375 2.703125 C-0.12300781 1.81109375 -0.06242188 0.9190625 0 0 Z " fill="#22262A" transform="translate(859,97)"/>
<path d="M0 0 C1.32 0 2.64 0 4 0 C4 6.6 4 13.2 4 20 C2.68 20 1.36 20 0 20 C0 19.01 0 18.02 0 17 C-0.66 17 -1.32 17 -2 17 C-1.76990234 16.21882813 -1.76990234 16.21882813 -1.53515625 15.421875 C-0.86017489 12.36721485 -0.65588882 9.36984029 -0.4375 6.25 C-0.35371094 5.07953125 -0.26992188 3.9090625 -0.18359375 2.703125 C-0.12300781 1.81109375 -0.06242187 0.9190625 0 0 Z " fill="#22262A" transform="translate(459,97)"/>
<path d="M0 0 C1.32 0 2.64 0 4 0 C4 1.32 4 2.64 4 4 C4.66 4.33 5.32 4.66 6 5 C5.67 5.66 5.34 6.32 5 7 C4.77049681 9.204364 4.58924067 11.41392173 4.4375 13.625 C4.35371094 14.81351563 4.26992188 16.00203125 4.18359375 17.2265625 C4.12300781 18.14179687 4.06242188 19.05703125 4 20 C2.68 20 1.36 20 0 20 C0 13.4 0 6.8 0 0 Z " fill="#282C30" transform="translate(895,97)"/>
<path d="M0 0 C1.32 0 2.64 0 4 0 C4 1.32 4 2.64 4 4 C4.66 4.33 5.32 4.66 6 5 C5.67 5.66 5.34 6.32 5 7 C4.77049681 9.204364 4.58924067 11.41392173 4.4375 13.625 C4.35371094 14.81351563 4.26992187 16.00203125 4.18359375 17.2265625 C4.12300781 18.14179687 4.06242188 19.05703125 4 20 C2.68 20 1.36 20 0 20 C0 13.4 0 6.8 0 0 Z " fill="#282C30" transform="translate(224,97)"/>
<path d="M0 0 C0.928125 0.20625 1.85625 0.4125 2.8125 0.625 C4.14407895 6.07236842 4.14407895 6.07236842 2.6875 8.5 C0.21772151 9.9818671 -1.35363833 9.9883156 -4.1875 9.625 C-6.1875 7.625 -6.1875 7.625 -6.5 4.625 C-6.396875 3.635 -6.29375 2.645 -6.1875 1.625 C-3.1875 -0.375 -3.1875 -0.375 0 0 Z " fill="#525558" transform="translate(202.1875,286.375)"/>
<path d="M0 0 C1.32 0 2.64 0 4 0 C4 6.6 4 13.2 4 20 C2.68 20 1.36 20 0 20 C0 13.4 0 6.8 0 0 Z " fill="#24282C" transform="translate(749,97)"/>
<path d="M0 0 C1.32 0 2.64 0 4 0 C4 6.6 4 13.2 4 20 C2.68 20 1.36 20 0 20 C0 13.4 0 6.8 0 0 Z " fill="#282C30" transform="translate(412,97)"/>
<path d="M0 0 C1.32 0 2.64 0 4 0 C4 6.6 4 13.2 4 20 C2.68 20 1.36 20 0 20 C0 13.4 0 6.8 0 0 Z " fill="#282C30" transform="translate(214,97)"/>
<path d="M0 0 C0.99 0.33 1.98 0.66 3 1 C4.1875 4.5625 4.1875 4.5625 5 8 C5.99 5.36 6.98 2.72 8 0 C8.66 0 9.32 0 10 0 C10.33 2.97 10.66 5.94 11 9 C11.66 9 12.32 9 13 9 C13.66 6.03 14.32 3.06 15 0 C16.03103689 4.12414757 15.94701684 4.9841142 14.5625 8.75 C14.27503906 9.54921875 13.98757812 10.3484375 13.69140625 11.171875 C13.46324219 11.77515625 13.23507813 12.3784375 13 13 C12.34 13 11.68 13 11 13 C10.34 11.02 9.68 9.04 9 7 C6.89767656 9.8684413 6.89767656 9.8684413 6 13 C5.34 13 4.68 13 4 13 C1.97944157 8.60748167 0.59104765 4.84659077 0 0 Z " fill="#7E8082" transform="translate(143,234)"/>
<path d="M0 0 C2.63804589 -0.39397335 2.63804589 -0.39397335 5 -1 C4.67 -0.34 4.34 0.32 4 1 C3.34 1 2.68 1 2 1 C1.67 1.66 1.34 2.32 1 3 C3.475 3.99 3.475 3.99 6 5 C5.67 6.32 5.34 7.64 5 9 C3.02 9 1.04 9 -1 9 C-1 8.34 -1 7.68 -1 7 C-1.66 7 -2.32 7 -3 7 C-3 6.01 -3 5.02 -3 4 C-4.32 3.67 -5.64 3.34 -7 3 C-7 2.01 -7 1.02 -7 0 C-3.98968256 -0.93423645 -3.13349732 -1.04449911 0 0 Z " fill="#EFEFEF" transform="translate(257,149)"/>
<path d="M0 0 C2.14576637 -0.02685938 4.29162645 -0.04633088 6.4375 -0.0625 C7.63246094 -0.07410156 8.82742187 -0.08570312 10.05859375 -0.09765625 C13 0 13 0 14 1 C14.07179964 2.51928038 14.08392007 4.04167482 14.0625 5.5625 C14.05347656 6.38878906 14.04445312 7.21507812 14.03515625 8.06640625 C14.02355469 8.70449219 14.01195312 9.34257812 14 10 C13.34 10 12.68 10 12 10 C12 7.36 12 4.72 12 2 C11.01 2.33 10.02 2.66 9 3 C8.67 5.31 8.34 7.62 8 10 C7.34 10 6.68 10 6 10 C6 7.36 6 4.72 6 2 C5.01 2.33 4.02 2.66 3 3 C2.67 5.31 2.34 7.62 2 10 C1.34 10 0.68 10 0 10 C0 6.7 0 3.4 0 0 Z " fill="#8B8D8F" transform="translate(188,20)"/>
<path d="M0 0 C0.66 0 1.32 0 2 0 C2 1.98 2 3.96 2 6 C4.31 6 6.62 6 9 6 C9 4.02 9 2.04 9 0 C9.66 0 10.32 0 11 0 C11 4.62 11 9.24 11 14 C10.34 14 9.68 14 9 14 C9 12.02 9 10.04 9 8 C7.02 8 5.04 8 3 8 C3 9.98 3 11.96 3 14 C2.01 14 1.02 14 0 14 C0 9.38 0 4.76 0 0 Z " fill="#7F8183" transform="translate(162,16)"/>
<path d="M0 0 C3 0.25 3 0.25 5 2.25 C5 3.57 5 4.89 5 6.25 C2.69 6.25 0.38 6.25 -2 6.25 C-2 6.91 -2 7.57 -2 8.25 C-0.02 8.25 1.96 8.25 4 8.25 C4 8.91 4 9.57 4 10.25 C0.625 10.375 0.625 10.375 -3 10.25 C-5 8.25 -5 8.25 -5.25 5.25 C-4.90584825 1.120179 -4.129821 0.34415175 0 0 Z " fill="#676A6C" transform="translate(209,19.75)"/>
<path d="M0 0 C0.66 0 1.32 0 2 0 C2.77916092 5.02125926 3.13016601 8.97703996 2 14 C0.02 14 -1.96 14 -4 14 C-4 11.36 -4 8.72 -4 6 C-4.66 5.67 -5.32 5.34 -6 5 C-5.34 5 -4.68 5 -4 5 C-3.67 4.01 -3.34 3.02 -3 2 C-3 2.99 -3 3.98 -3 5 C-2.01 5 -1.02 5 0 5 C0 3.35 0 1.7 0 0 Z " fill="#C7C8C9" transform="translate(388,233)"/>
<path d="M0 0 C0.66 0 1.32 0 2 0 C2.91297308 4.97063121 2.91297308 9.02936879 2 14 C-1.15473719 13.64947365 -2.8233534 13.13480924 -5.375 11.1875 C-7 9 -7 9 -6.75 6.75 C-6.37875 5.88375 -6.37875 5.88375 -6 5 C-4.35 5 -2.7 5 -1 5 C-0.67 3.35 -0.34 1.7 0 0 Z " fill="#AEB0B1" transform="translate(241,233)"/>
<path d="M0 0 C2.5625 0.1875 2.5625 0.1875 4.5625 2.1875 C4.8125 4.6875 4.8125 4.6875 4.5625 7.1875 C2.5625 9.1875 2.5625 9.1875 0.0625 9.4375 C-2.4375 9.1875 -2.4375 9.1875 -4.4375 7.1875 C-3.73338608 0.28718354 -3.73338608 0.28718354 0 0 Z " fill="#828486" transform="translate(292.4375,237.8125)"/>
<path d="M0 0 C6 0 6 0 8 1 C8.04254356 2.99954746 8.04080783 5.00041636 8 7 C7 8 7 8 3.9375 8.0625 C2.968125 8.041875 1.99875 8.02125 1 8 C1 9.98 1 11.96 1 14 C0.67 14 0.34 14 0 14 C0 9.38 0 4.76 0 0 Z " fill="#505457" transform="translate(145,282)"/>
<path d="M0 0 C1 1 1 1 1.1875 3.4375 C1 6 1 6 -1 8 C-3.5 8.25 -3.5 8.25 -6 8 C-6.66 7.34 -7.32 6.68 -8 6 C-7.75 2.9375 -7.75 2.9375 -7 0 C-4.31633121 -1.3418344 -2.84719317 -0.73004953 0 0 Z " fill="#898B8D" transform="translate(438,239)"/>
<path d="M0 0 C0.99 0 1.98 0 3 0 C3 1.32 3 2.64 3 4 C3.99 4 4.98 4 6 4 C6 4.66 6 5.32 6 6 C5.01 6 4.02 6 3 6 C3 8.97 3 11.94 3 15 C3.99 15 4.98 15 6 15 C6 15.66 6 16.32 6 17 C4.33388095 17.042721 2.66617115 17.04063832 1 17 C0 16 0 16 -0.09765625 13.71484375 C-0.08025391 12.34005859 -0.08025391 12.34005859 -0.0625 10.9375 C-0.05347656 10.01839844 -0.04445312 9.09929688 -0.03515625 8.15234375 C-0.02355469 7.44207031 -0.01195312 6.73179688 0 6 C-0.66 6 -1.32 6 -2 6 C-2 5.34 -2 4.68 -2 4 C-1.34 4 -0.68 4 0 4 C0 2.68 0 1.36 0 0 Z " fill="#E4E4E5" transform="translate(55,15)"/>
<path d="M0 0 C0 0.66 0 1.32 0 2 C-1.65 2 -3.3 2 -5 2 C-3.77065985 5.68802044 -2.06140622 6.72356973 1 9 C0.125 12.875 0.125 12.875 -1 14 C-3.33297433 14.04092937 -5.66705225 14.04241723 -8 14 C-7.67 13.01 -7.34 12.02 -7 11 C-5.35 11.33 -3.7 11.66 -2 12 C-2.68885796 8.78938622 -2.68885796 8.78938622 -5.5625 7.625 C-6.366875 7.08875 -7.17125 6.5525 -8 6 C-8.3125 3.3125 -8.3125 3.3125 -8 1 C-5.29120665 -0.35439668 -2.99066732 -0.06501451 0 0 Z " fill="#D1E3FE" transform="translate(168,398)"/>
<path d="M0 0 C1.134375 0.020625 2.26875 0.04125 3.4375 0.0625 C3.4375 0.7225 3.4375 1.3825 3.4375 2.0625 C1.4575 2.0625 -0.5225 2.0625 -2.5625 2.0625 C-1.87364204 5.27311378 -1.87364204 5.27311378 1 6.4375 C1.804375 6.97375 2.60875 7.51 3.4375 8.0625 C3.75 10.75 3.75 10.75 3.4375 13.0625 C0.72870665 14.41689668 -1.57183268 14.12751451 -4.5625 14.0625 C-4.8925 13.0725 -5.2225 12.0825 -5.5625 11.0625 C-3.2525 11.3925 -0.9425 11.7225 1.4375 12.0625 C1.4375 11.0725 1.4375 10.0825 1.4375 9.0625 C0.261875 8.629375 0.261875 8.629375 -0.9375 8.1875 C-3.5625 7.0625 -3.5625 7.0625 -5.5625 5.0625 C-4.90400312 0.71642062 -4.57278902 0.08022437 0 0 Z " fill="#DBDCDC" transform="translate(1821.5625,15.9375)"/>
<path d="M0 0 C0.66 0 1.32 0 2 0 C2.33 1.98 2.66 3.96 3 6 C3.66 6 4.32 6 5 6 C5.33 4.02 5.66 2.04 6 0 C6.99 0.33 7.98 0.66 9 1 C9.6875 3.0625 9.6875 3.0625 10 5 C10.66 3.35 11.32 1.7 12 0 C12.66 0 13.32 0 14 0 C13.745504 1.48206495 13.47088238 2.96068615 13.1875 4.4375 C13.03667969 5.26121094 12.88585937 6.08492188 12.73046875 6.93359375 C12.36888672 7.95646484 12.36888672 7.95646484 12 9 C11.01 9.33 10.02 9.66 9 10 C8.67 8.35 8.34 6.7 8 5 C7.34 5 6.68 5 6 5 C5.67 6.65 5.34 8.3 5 10 C4.34 10 3.68 10 3 10 C2.01 6.7 1.02 3.4 0 0 Z " fill="#6C6F71" transform="translate(181,286)"/>
<path d="M0 0 C1.66611905 -0.042721 3.33382885 -0.04063832 5 0 C6 1 6 1 6.09765625 3.06640625 C6.08605469 3.89011719 6.07445312 4.71382812 6.0625 5.5625 C6.05347656 6.38878906 6.04445312 7.21507812 6.03515625 8.06640625 C6.02355469 8.70449219 6.01195312 9.34257812 6 10 C3.69 10 1.38 10 -1 10 C-1.625 8.125 -1.625 8.125 -2 6 C-1.34 5.34 -0.68 4.68 0 4 C1.32 4 2.64 4 4 4 C4 3.34 4 2.68 4 2 C2.35 2.33 0.7 2.66 -1 3 C-0.67 2.01 -0.34 1.02 0 0 Z " fill="#8B8D8F" transform="translate(173,148)"/>
<path d="M0 0 C1.66611905 -0.042721 3.33382885 -0.04063832 5 0 C6 1 6 1 6.09765625 3.06640625 C6.08605469 3.89011719 6.07445312 4.71382813 6.0625 5.5625 C6.05347656 6.38878906 6.04445312 7.21507812 6.03515625 8.06640625 C6.02355469 8.70449219 6.01195312 9.34257812 6 10 C3.69 10 1.38 10 -1 10 C-1.33 8.68 -1.66 7.36 -2 6 C1 4 1 4 4 4 C4 3.34 4 2.68 4 2 C2.35 2.33 0.7 2.66 -1 3 C-0.67 2.01 -0.34 1.02 0 0 Z " fill="#8E9092" transform="translate(156,286)"/>
<path d="M0 0 C0.66 0 1.32 0 2 0 C2 2.64 2 5.28 2 8 C3.32 8 4.64 8 6 8 C6 5.36 6 2.72 6 0 C6.99 0 7.98 0 9 0 C9 3.3 9 6.6 9 10 C2.84765625 10.09765625 2.84765625 10.09765625 1 10 C0 9 0 9 -0.09765625 6.93359375 C-0.08605469 6.10988281 -0.07445312 5.28617187 -0.0625 4.4375 C-0.05347656 3.61121094 -0.04445312 2.78492188 -0.03515625 1.93359375 C-0.02355469 1.29550781 -0.01195312 0.65742188 0 0 Z " fill="#BDD7FE" transform="translate(171,402)"/>
<path d="M0 0 C6.15234375 -0.09765625 6.15234375 -0.09765625 8 0 C9 1 9 1 9.09765625 3.06640625 C9.08605469 3.89011719 9.07445312 4.71382812 9.0625 5.5625 C9.05347656 6.38878906 9.04445313 7.21507812 9.03515625 8.06640625 C9.02355469 8.70449219 9.01195312 9.34257812 9 10 C8.34 10 7.68 10 7 10 C7 7.36 7 4.72 7 2 C5.68 2 4.36 2 3 2 C3 4.64 3 7.28 3 10 C2.01 10 1.02 10 0 10 C0 6.7 0 3.4 0 0 Z " fill="#D1D2D3" transform="translate(1773,20)"/>
<path d="M0 0 C4.70588235 0.70588235 4.70588235 0.70588235 6 2 C6.14115161 4.67058851 6.04247107 7.32432238 6 10 C3.69 10 1.38 10 -1 10 C-1.33 8.35 -1.66 6.7 -2 5 C-0.02 4.67 1.96 4.34 4 4 C3.67 3.34 3.34 2.68 3 2 C0.97536745 1.34786708 0.97536745 1.34786708 -1 1 C-0.67 0.67 -0.34 0.34 0 0 Z " fill="#8F9193" transform="translate(199,148)"/>
<path d="M0 0 C3.375 -0.125 3.375 -0.125 7 0 C9 2 9 2 9.1953125 3.9453125 C9.13020833 5.96354167 9.06510417 7.98177083 9 10 C8.01 10 7.02 10 6 10 C6 7.36 6 4.72 6 2 C5.01 2.33 4.02 2.66 3 3 C2.67 5.31 2.34 7.62 2 10 C1.34 10 0.68 10 0 10 C0 6.7 0 3.4 0 0 Z " fill="#D5D6D7" transform="translate(1844,20)"/>
<path d="M0 0 C0.99 0 1.98 0 3 0 C3 2.64 3 5.28 3 8 C4.32 8 5.64 8 7 8 C7 5.36 7 2.72 7 0 C7.66 0 8.32 0 9 0 C9 3.3 9 6.6 9 10 C5.625 10.125 5.625 10.125 2 10 C0 8 0 8 -0.1953125 6.0546875 C-0.13020833 4.03645833 -0.06510417 2.01822917 0 0 Z " fill="#818486" transform="translate(271,20)"/>
<path d="M0 0 C2.625 0.375 2.625 0.375 5 1 C5 3.31 5 5.62 5 8 C2.625 8.625 2.625 8.625 0 9 C-2 7 -2 7 -2.25 4.5 C-2 2 -2 2 0 0 Z " fill="#282C2F" transform="translate(109,21)"/>
<path d="M0 0 C4.70588235 0.70588235 4.70588235 0.70588235 6 2 C6.1875 4.4375 6.1875 4.4375 6 7 C5.34 7.66 4.68 8.32 4 9 C1.375 8.625 1.375 8.625 -1 8 C-1.04241723 5.66705225 -1.04092937 3.33297433 -1 1 C-0.67 0.67 -0.34 0.34 0 0 Z " fill="#2A2E32" transform="translate(94,21)"/>
<path d="M0 0 C4.70588235 0.70588235 4.70588235 0.70588235 6 2 C6.1875 4.4375 6.1875 4.4375 6 7 C5.34 7.66 4.68 8.32 4 9 C1.375 8.625 1.375 8.625 -1 8 C-1.04241723 5.66705225 -1.04092937 3.33297433 -1 1 C-0.67 0.67 -0.34 0.34 0 0 Z " fill="#2A2E32" transform="translate(43,21)"/>
<path d="M0 0 C2.625 0.375 2.625 0.375 5 1 C5.33 2.32 5.66 3.64 6 5 C3.69 5 1.38 5 -1 5 C-1 5.99 -1 6.98 -1 8 C0.98 8 2.96 8 5 8 C5 8.66 5 9.32 5 10 C2.125 10.1875 2.125 10.1875 -1 10 C-3 7 -3 7 -2.75 4.4375 C-2 2 -2 2 0 0 Z " fill="#707275" transform="translate(240,148)"/>
<path d="M0 0 C0.66 0 1.32 0 2 0 C2 0.66 2 1.32 2 2 C2.99 2 3.98 2 5 2 C5.66 1.34 6.32 0.68 7 0 C7.66 1.32 8.32 2.64 9 4 C9.99 2.68 10.98 1.36 12 0 C11.125 6.75 11.125 6.75 10 9 C9.34 9 8.68 9 8 9 C7.34 7.68 6.68 6.36 6 5 C5.34 6.32 4.68 7.64 4 9 C2 8 2 8 1.3671875 6.15234375 C1.20476562 5.42144531 1.04234375 4.69054687 0.875 3.9375 C0.70742188 3.20402344 0.53984375 2.47054687 0.3671875 1.71484375 C0.24601562 1.14894531 0.12484375 0.58304688 0 0 Z " fill="#929496" transform="translate(365,238)"/>
<path d="M0 0 C1.65 0.33 3.3 0.66 5 1 C5 3.64 5 6.28 5 9 C3.02 9 1.04 9 -1 9 C-2.0326802 6.21176345 -2.04509293 5.1322726 -1.0625 2.25 C-0.711875 1.5075 -0.36125 0.765 0 0 Z " fill="#A8A9AB" transform="translate(345,238)"/>
<path d="M0 0 C0.66 0 1.32 0 2 0 C2 0.99 2 1.98 2 3 C2.99 3 3.98 3 5 3 C5 3.66 5 4.32 5 5 C4.01 5 3.02 5 2 5 C2 6.98 2 8.96 2 11 C2.99 11 3.98 11 5 11 C5 11.66 5 12.32 5 13 C3.33388095 13.042721 1.66617115 13.04063832 0 13 C-1.58272601 11.41727399 -1.34735747 9.61965997 -1.5625 7.4375 C-1.64628906 6.61121094 -1.73007813 5.78492188 -1.81640625 4.93359375 C-1.87699219 4.29550781 -1.93757812 3.65742188 -2 3 C-1.34 3 -0.68 3 0 3 C0 2.01 0 1.02 0 0 Z " fill="#BFD8FE" transform="translate(217,399)"/>
<path d="M0 0 C0.66 0 1.32 0 2 0 C2 0.99 2 1.98 2 3 C2.99 3 3.98 3 5 3 C5 3.66 5 4.32 5 5 C4.01 5 3.02 5 2 5 C2 6.98 2 8.96 2 11 C2.99 11 3.98 11 5 11 C5 11.66 5 12.32 5 13 C3.33388095 13.042721 1.66617115 13.04063832 0 13 C-1.58272601 11.41727399 -1.34735747 9.61965997 -1.5625 7.4375 C-1.64628906 6.61121094 -1.73007812 5.78492188 -1.81640625 4.93359375 C-1.87699219 4.29550781 -1.93757813 3.65742188 -2 3 C-1.34 3 -0.68 3 0 3 C0 2.01 0 1.02 0 0 Z " fill="#7A7D7F" transform="translate(284,17)"/>
<path d="M0 0 C0.66 0 1.32 0 2 0 C2 2.64 2 5.28 2 8 C3.32 7.67 4.64 7.34 6 7 C6.33 4.69 6.66 2.38 7 0 C7.66 0 8.32 0 9 0 C9 3.3 9 6.6 9 10 C2.25 10.125 2.25 10.125 0 9 C0 6.03 0 3.06 0 0 Z " fill="#DBDCDD" transform="translate(1855,20)"/>
<path d="M0 0 C1.67542976 0.28604898 3.34385343 0.61781233 5 1 C5.125 3.875 5.125 3.875 5 7 C4.34 7.66 3.68 8.32 3 9 C0.875 8.625 0.875 8.625 -1 8 C-1.04241723 5.66705225 -1.04092937 3.33297433 -1 1 C-0.67 0.67 -0.34 0.34 0 0 Z " fill="#282B2F" transform="translate(80,21)"/>
<path d="M0 0 C1.66611905 -0.042721 3.33382885 -0.04063832 5 0 C6 1 6 1 6.09765625 2.84765625 C6.06510417 4.8984375 6.03255208 6.94921875 6 9 C4.02 9 2.04 9 0 9 C-0.625 7.125 -0.625 7.125 -1 5 C-0.34 4.34 0.32 3.68 1 3 C1.99 3 2.98 3 4 3 C4 2.34 4 1.68 4 1 C2.68 0.67 1.36 0.34 0 0 Z " fill="#9A9B9D" transform="translate(252,238)"/>
<path d="M0 0 C2.00720923 0.28674418 4.0085944 0.61866701 6 1 C6 2.32 6 3.64 6 5 C4.02 5 2.04 5 0 5 C1.25541557 7.51083114 2.50063488 7.87125446 5 9 C2.625 9.125 2.625 9.125 0 9 C-0.66 8.34 -1.32 7.68 -2 7 C-1.43181818 1.43181818 -1.43181818 1.43181818 0 0 Z " fill="#989A9C" transform="translate(487,238)"/>
<path d="M0 0 C1.66611905 -0.042721 3.33382885 -0.04063832 5 0 C6 1 6 1 6.09765625 2.84765625 C6.06510417 4.8984375 6.03255208 6.94921875 6 9 C4.02 9 2.04 9 0 9 C-0.33 7.68 -0.66 6.36 -1 5 C0.65 4.01 2.3 3.02 4 2 C2.68 2 1.36 2 0 2 C0 1.34 0 0.68 0 0 Z " fill="#989A9B" transform="translate(404,238)"/>
<path d="M0 0 C2.00720923 0.28674418 4.0085944 0.61866701 6 1 C6 2.32 6 3.64 6 5 C4.02 5 2.04 5 0 5 C1.25541557 7.51083114 2.50063488 7.87125446 5 9 C2.625 9.125 2.625 9.125 0 9 C-0.66 8.34 -1.32 7.68 -2 7 C-1.43181818 1.43181818 -1.43181818 1.43181818 0 0 Z " fill="#989A9C" transform="translate(215,238)"/>
<path d="M0 0 C2.875 -0.125 2.875 -0.125 6 0 C8 2 8 2 8.125 5.625 C8.08375 6.73875 8.0425 7.8525 8 9 C7.34 9 6.68 9 6 9 C5.67 7.02 5.34 5.04 5 3 C4.01 3.495 4.01 3.495 3 4 C2.34444881 6.52733235 2.34444881 6.52733235 2 9 C1.34 9 0.68 9 0 9 C0 6.03 0 3.06 0 0 Z " fill="#9A9C9D" transform="translate(441,238)"/>
<path d="M0 0 C1.67542976 0.28604898 3.34385343 0.61781233 5 1 C5.33 2.32 5.66 3.64 6 5 C4.02 5 2.04 5 0 5 C1.25541557 7.51083114 2.50063488 7.87125446 5 9 C2.625 9.125 2.625 9.125 0 9 C-0.66 8.34 -1.32 7.68 -2 7 C-1.43181818 1.43181818 -1.43181818 1.43181818 0 0 Z " fill="#969799" transform="translate(321,238)"/>
<path d="M0 0 C0.66 0 1.32 0 2 0 C2.05386629 2.12472576 2.09273071 4.24983652 2.125 6.375 C2.14820313 7.55835938 2.17140625 8.74171875 2.1953125 9.9609375 C2 13 2 13 0 15 C-3.625 15.125 -3.625 15.125 -7 15 C-7 14.34 -7 13.68 -7 13 C-5.02 12.67 -3.04 12.34 -1 12 C-1.01160156 11.21753906 -1.02320313 10.43507813 -1.03515625 9.62890625 C-1.04417969 8.61699219 -1.05320312 7.60507812 -1.0625 6.5625 C-1.07410156 5.55316406 -1.08570313 4.54382813 -1.09765625 3.50390625 C-1 1 -1 1 0 0 Z " fill="#E0E0E1" transform="translate(1764,20)"/>
<path d="M0 0 C2.625 0.375 2.625 0.375 5 1 C5.33 2.32 5.66 3.64 6 5 C4.02 5.33 2.04 5.66 0 6 C1.32 6.99 2.64 7.98 4 9 C-0.875 8.125 -0.875 8.125 -2 7 C-2.1875 4.5625 -2.1875 4.5625 -2 2 C-1.34 1.34 -0.68 0.68 0 0 Z " fill="#969799" transform="translate(268,238)"/>
<path d="M0 0 C2.625 0.375 2.625 0.375 5 1 C5.33 2.32 5.66 3.64 6 5 C4.02 5.33 2.04 5.66 0 6 C1.32 6.99 2.64 7.98 4 9 C-0.875 8.125 -0.875 8.125 -2 7 C-2.1875 4.5625 -2.1875 4.5625 -2 2 C-1.34 1.34 -0.68 0.68 0 0 Z " fill="#969799" transform="translate(198,238)"/>
<path d="M0 0 C1.32 0 2.64 0 4 0 C3.84660156 0.51046875 3.69320313 1.0209375 3.53515625 1.546875 C2.83094597 4.7749338 2.65111796 7.95418001 2.4375 11.25 C2.35371094 12.51328125 2.26992188 13.7765625 2.18359375 15.078125 C2.12300781 16.04234375 2.06242187 17.0065625 2 18 C1.34 18 0.68 18 0 18 C0 12.06 0 6.12 0 0 Z " fill="#ECECED" transform="translate(21,14)"/>
<path d="M0 0 C0.33 0.99 0.66 1.98 1 3 C3.00016466 4.20882096 3.00016466 4.20882096 5 5 C5 5.66 5 6.32 5 7 C2.69 7 0.38 7 -2 7 C-2 6.01 -2 5.02 -2 4 C-3.32 3.67 -4.64 3.34 -6 3 C-6 2.01 -6 1.02 -6 0 C-2.25 -1.125 -2.25 -1.125 0 0 Z " fill="#EFEFEF" transform="translate(173,287)"/>
<path d="M0 0 C0 1.98 0 3.96 0 6 C-3.75 7.125 -3.75 7.125 -6 6 C-6 4.02 -6 2.04 -6 0 C-3.50907189 -1.24546405 -2.58919267 -0.7767578 0 0 Z " fill="#ECECED" transform="translate(204,288)"/>
<path d="M0 0 C0.66 0 1.32 0 2 0 C2 3.96 2 7.92 2 12 C3.98 12 5.96 12 8 12 C8 12.66 8 13.32 8 14 C5.36 14 2.72 14 0 14 C0 9.38 0 4.76 0 0 Z " fill="#E0E1E1" transform="translate(1736,16)"/>
<path d="M0 0 C0.66 0 1.32 0 2 0 C2.8931507 6.58183362 2.95494281 12.42150508 2 19 C1.34 19 0.68 19 0 19 C0 12.73 0 6.46 0 0 Z " fill="#F4F4F4" transform="translate(76,13)"/>
<path d="M0 0 C1.32 0.33 2.64 0.66 4 1 C4 2.98 4 4.96 4 7 C2.35 7 0.7 7 -1 7 C-1.625 5.1875 -1.625 5.1875 -2 3 C-1.34 2.01 -0.68 1.02 0 0 Z " fill="#EAEAEB" transform="translate(218,287)"/>
<path d="M0 0 C0.66 0 1.32 0 2 0 C2.66 1.65 3.32 3.3 4 5 C4.99 3.35 5.98 1.7 7 0 C8 3 8 3 7.00390625 5.48046875 C6.52824219 6.37378906 6.05257813 7.26710937 5.5625 8.1875 C5.08941406 9.08855469 4.61632812 9.98960937 4.12890625 10.91796875 C3.75636719 11.60503906 3.38382812 12.29210937 3 13 C2.01 12.67 1.02 12.34 0 12 C0.66 11.67 1.32 11.34 2 11 C1.25640327 5.44946714 1.25640327 5.44946714 0 0 Z " fill="#888A8C" transform="translate(279,238)"/>
<path d="M0 0 C1.32 0.33 2.64 0.66 4 1 C4 2.98 4 4.96 4 7 C2.35 7 0.7 7 -1 7 C-1.625 5.1875 -1.625 5.1875 -2 3 C-1.34 2.01 -0.68 1.02 0 0 Z " fill="#EAEAEB" transform="translate(222,149)"/>
<path d="M0 0 C1.32 0.33 2.64 0.66 4 1 C4 2.98 4 4.96 4 7 C2.35 7 0.7 7 -1 7 C-1.625 5.1875 -1.625 5.1875 -2 3 C-1.34 2.01 -0.68 1.02 0 0 Z " fill="#EAEAEB" transform="translate(210,149)"/>
<path d="M0 0 C0.33 1.32 0.66 2.64 1 4 C-1.97 4 -4.94 4 -8 4 C-7.67 2.68 -7.34 1.36 -7 0 C-4.3333581 -1.33332095 -2.83319697 -0.67102033 0 0 Z " fill="#EAEAEA" transform="translate(968,101)"/>
<path d="M0 0 C1.67542976 0.28604898 3.34385343 0.61781233 5 1 C5.33 2.32 5.66 3.64 6 5 C3.03 5 0.06 5 -3 5 C-1 1 -1 1 0 0 Z " fill="#EAEAEB" transform="translate(630,100)"/>
<path d="M0 0 C0.33 1.32 0.66 2.64 1 4 C-1.97 4 -4.94 4 -8 4 C-7.67 2.68 -7.34 1.36 -7 0 C-4.3333581 -1.33332095 -2.83319697 -0.67102033 0 0 Z " fill="#EAEAEA" transform="translate(481,101)"/>
<path d="M0 0 C0.66 0 1.32 0 2 0 C2 1.98 2 3.96 2 6 C4.64 6 7.28 6 10 6 C10 6.33 10 6.66 10 7 C7.36 7 4.72 7 2 7 C2 9.31 2 11.62 2 14 C1.34 14 0.68 14 0 14 C0 9.38 0 4.76 0 0 Z " fill="#919394" transform="translate(162,16)"/>
<path d="M0 0 C0.94875 0.04125 1.8975 0.0825 2.875 0.125 C3.205 0.785 3.535 1.445 3.875 2.125 C3.545 3.115 3.215 4.105 2.875 5.125 C0.565 5.125 -1.745 5.125 -4.125 5.125 C-4.455 4.135 -4.785 3.145 -5.125 2.125 C-3.125 0.125 -3.125 0.125 0 0 Z " fill="#989A9C" transform="translate(68.125,18.875)"/>
<path d="M0 0 C4.875 0.875 4.875 0.875 6 2 C6.1875 4.9375 6.1875 4.9375 6 8 C4 10 4 10 0.875 10.125 C-0.548125 10.063125 -0.548125 10.063125 -2 10 C-1.67 9.01 -1.34 8.02 -1 7 C0.32 7 1.64 7 3 7 C2.42547254 3.06924356 2.42547254 3.06924356 0 0 Z " fill="#DBE9FE" transform="translate(186,402)"/>
<path d="M0 0 C2.625 0.375 2.625 0.375 5 1 C5 2.32 5 3.64 5 5 C3.02 5 1.04 5 -1 5 C-0.67 5.99 -0.34 6.98 0 8 C-0.66 8 -1.32 8 -2 8 C-2.125 5.125 -2.125 5.125 -2 2 C-1.34 1.34 -0.68 0.68 0 0 Z " fill="#9A9C9D" transform="translate(467,238)"/>
<path d="M0 0 C2.625 0.375 2.625 0.375 5 1 C5 2.32 5 3.64 5 5 C3.02 5 1.04 5 -1 5 C-0.67 5.99 -0.34 6.98 0 8 C-0.66 8 -1.32 8 -2 8 C-2.125 5.125 -2.125 5.125 -2 2 C-1.34 1.34 -0.68 0.68 0 0 Z " fill="#9A9C9D" transform="translate(453,238)"/>
<path d="M0 0 C2.625 0.375 2.625 0.375 5 1 C5 2.32 5 3.64 5 5 C3.02 5 1.04 5 -1 5 C-0.67 5.99 -0.34 6.98 0 8 C-0.66 8 -1.32 8 -2 8 C-2.125 5.125 -2.125 5.125 -2 2 C-1.34 1.34 -0.68 0.68 0 0 Z " fill="#9A9C9D" transform="translate(162,238)"/>
<path d="M0 0 C0.99 0.33 1.98 0.66 3 1 C4.1875 4.5625 4.1875 4.5625 5 8 C5.33 7.01 5.66 6.02 6 5 C6.66 5 7.32 5 8 5 C7.34 7.64 6.68 10.28 6 13 C5.34 13 4.68 13 4 13 C1.97944157 8.60748167 0.59104765 4.84659077 0 0 Z " fill="#888A8C" transform="translate(143,234)"/>
<path d="M0 0 C4.875 0.875 4.875 0.875 6 2 C6.1875 4.9375 6.1875 4.9375 6 8 C4 10 4 10 0.875 10.125 C-0.548125 10.063125 -0.548125 10.063125 -2 10 C-1.67 9.01 -1.34 8.02 -1 7 C0.32 7 1.64 7 3 7 C2.42547254 3.06924356 2.42547254 3.06924356 0 0 Z " fill="#888B8D" transform="translate(252,20)"/>
<path d="M0 0 C1.32 0 2.64 0 4 0 C3.67 0.66 3.34 1.32 3 2 C2.34 2 1.68 2 1 2 C0.67 2.66 0.34 3.32 0 4 C2.475 4.99 2.475 4.99 5 6 C4.67 7.32 4.34 8.64 4 10 C2.02 10 0.04 10 -2 10 C-2 9.34 -2 8.68 -2 8 C-0.35 8 1.3 8 3 8 C3 7.34 3 6.68 3 6 C0.525 5.01 0.525 5.01 -2 4 C-1.34 2.68 -0.68 1.36 0 0 Z " fill="#575A5D" transform="translate(175,286)"/>
<path d="M0 0 C0.66 0 1.32 0 2 0 C2.66 1.65 3.32 3.3 4 5 C4.99 3.35 5.98 1.7 7 0 C8 3 8 3 7.00390625 5.48046875 C6.52824219 6.37378906 6.05257813 7.26710937 5.5625 8.1875 C5.08941406 9.08855469 4.61632812 9.98960937 4.12890625 10.91796875 C3.75636719 11.60503906 3.38382812 12.29210937 3 13 C2.34 12.67 1.68 12.34 1 12 C1.33 11.67 1.66 11.34 2 11 C1.62206515 7.09467317 1.23947487 3.7184246 0 0 Z " fill="#86888A" transform="translate(421,238)"/>
<path d="M0 0 C1.32 0 2.64 0 4 0 C3.67 0.66 3.34 1.32 3 2 C2.34 2 1.68 2 1 2 C0.67 2.66 0.34 3.32 0 4 C2.475 4.99 2.475 4.99 5 6 C4.67 7.32 4.34 8.64 4 10 C2.02 10 0.04 10 -2 10 C-2 9.34 -2 8.68 -2 8 C-0.35 8 1.3 8 3 8 C3 7.34 3 6.68 3 6 C0.525 5.01 0.525 5.01 -2 4 C-1.34 2.68 -0.68 1.36 0 0 Z " fill="#575A5D" transform="translate(258,148)"/>
<path d="M0 0 C0.33 0 0.66 0 1 0 C1 2.97 1 5.94 1 9 C-1.31 8.67 -3.62 8.34 -6 8 C-6.33 7.01 -6.66 6.02 -7 5 C-5.02 5 -3.04 5 -1 5 C-0.67 3.35 -0.34 1.7 0 0 Z " fill="#F4F5F5" transform="translate(328,238)"/>
<path d="M0 0 C0.625 2.375 0.625 2.375 1 5 C0.34 5.66 -0.32 6.32 -1 7 C-3.125 6.625 -3.125 6.625 -5 6 C-5 4.68 -5 3.36 -5 2 C-2 0 -2 0 0 0 Z " fill="#F4F4F5" transform="translate(437,239)"/>
<path d="M0 0 C2.0625 0.4375 2.0625 0.4375 4 1 C4 2.65 4 4.3 4 6 C2.0625 6.5625 2.0625 6.5625 0 7 C-1 6 -1 6 -1.125 3.5 C-1 1 -1 1 0 0 Z " fill="#FCFCFC" transform="translate(291,239)"/>
<path d="M0 0 C0.33 0.66 0.66 1.32 1 2 C1.66 2 2.32 2 3 2 C3.33 3.98 3.66 5.96 4 8 C2.02 8 0.04 8 -2 8 C-1.34 5.36 -0.68 2.72 0 0 Z " fill="#56595C" transform="translate(238,17)"/>
<path d="M0 0 C0.99 0 1.98 0 3 0 C3 3.3 3 6.6 3 10 C2.01 10 1.02 10 0 10 C0 6.7 0 3.4 0 0 Z " fill="#B6D3FE" transform="translate(211,402)"/>
<path d="M0 0 C1.65 0 3.3 0 5 0 C5 1.98 5 3.96 5 6 C3.35 6 1.7 6 0 6 C0 4.02 0 2.04 0 0 Z " fill="#262A2E" transform="translate(178,22)"/>
<path d="M0 0 C0.99 0 1.98 0 3 0 C3 3.3 3 6.6 3 10 C2.01 10 1.02 10 0 10 C0 6.7 0 3.4 0 0 Z " fill="#BCBDBE" transform="translate(1827,20)"/>
<path d="M0 0 C2.64 0 5.28 0 8 0 C8 0.66 8 1.32 8 2 C5.69 2 3.38 2 1 2 C1.33 2.66 1.66 3.32 2 4 C5.02934491 4.65772428 5.02934491 4.65772428 8 5 C8 5.66 8 6.32 8 7 C5.66705225 7.04241723 3.33297433 7.04092937 1 7 C0 6 0 6 -0.0625 2.9375 C-0.041875 1.968125 -0.02125 0.99875 0 0 Z " fill="#8C8F90" transform="translate(205,23)"/>
<path d="M0 0 C3.57104439 1.87949705 5.54744301 3.17053157 7 7 C4.13275314 6.42655063 3.1385485 6.1385485 1 4 C0.34 4.99 -0.32 5.98 -1 7 C-1.04254356 5.00045254 -1.04080783 2.99958364 -1 1 C-0.67 0.67 -0.34 0.34 0 0 Z " fill="#C6C8C8" transform="translate(123,25)"/>
<path d="M0 0 C2.475 0.495 2.475 0.495 5 1 C4.67 2.65 4.34 4.3 4 6 C2.68 6 1.36 6 0 6 C0 4.02 0 2.04 0 0 Z " fill="#1C77FD" transform="translate(185,404)"/>
<path d="M0 0 C1.32 0 2.64 0 4 0 C4 1.98 4 3.96 4 6 C2.35 5.67 0.7 5.34 -1 5 C-0.67 3.35 -0.34 1.7 0 0 Z " fill="#24282C" transform="translate(1748,22)"/>
<path d="M0 0 C1.32 0 2.64 0 4 0 C4 1.98 4 3.96 4 6 C2.35 5.67 0.7 5.34 -1 5 C-0.67 3.35 -0.34 1.7 0 0 Z " fill="#22262A" transform="translate(263,22)"/>
<path d="M0 0 C2.475 0.495 2.475 0.495 5 1 C4.67 2.65 4.34 4.3 4 6 C2.68 6 1.36 6 0 6 C0 4.02 0 2.04 0 0 Z " fill="#282C30" transform="translate(251,22)"/>
<path d="M0 0 C4.70588235 0.70588235 4.70588235 0.70588235 6 2 C6.14115161 4.67058851 6.04247107 7.32432238 6 10 C5.01 9.67 4.02 9.34 3 9 C3.33 7.68 3.66 6.36 4 5 C3.34 4.67 2.68 4.34 2 4 C2.66 4 3.32 4 4 4 C3.67 3.34 3.34 2.68 3 2 C0.97536745 1.34786708 0.97536745 1.34786708 -1 1 C-0.67 0.67 -0.34 0.34 0 0 Z " fill="#4B4E52" transform="translate(199,148)"/>
<path d="M0 0 C0.33 0 0.66 0 1 0 C1.33 1.98 1.66 3.96 2 6 C4.31 6 6.62 6 9 6 C8.01 7.485 8.01 7.485 7 9 C3.375 9.1875 3.375 9.1875 0 9 C-1.10844919 5.67465243 -0.84454356 3.37817425 0 0 Z " fill="#CFD0D1" transform="translate(78,23)"/>
<path d="M0 0 C2.0625 0.4375 2.0625 0.4375 4 1 C3.67 2.65 3.34 4.3 3 6 C1.68 6 0.36 6 -1 6 C-1.042721 4.33388095 -1.04063832 2.66617115 -1 1 C-0.67 0.67 -0.34 0.34 0 0 Z " fill="#272B2F" transform="translate(1870,22)"/>
<path d="M0 0 C2.0625 0.4375 2.0625 0.4375 4 1 C3.67 2.65 3.34 4.3 3 6 C1.68 6 0.36 6 -1 6 C-1.042721 4.33388095 -1.04063832 2.66617115 -1 1 C-0.67 0.67 -0.34 0.34 0 0 Z " fill="#262A2E" transform="translate(1835,22)"/>
<path d="M0 0 C1.66611905 -0.042721 3.33382885 -0.04063832 5 0 C6 1 6 1 6.09765625 3.06640625 C6.08605469 3.89011719 6.07445312 4.71382813 6.0625 5.5625 C6.05347656 6.38878906 6.04445312 7.21507812 6.03515625 8.06640625 C6.01775391 9.02353516 6.01775391 9.02353516 6 10 C5.67 10 5.34 10 5 10 C5 8.35 5 6.7 5 5 C4.01 4.67 3.02 4.34 2 4 C2.66 4 3.32 4 4 4 C4 3.34 4 2.68 4 2 C2.35 2.33 0.7 2.66 -1 3 C-0.67 2.01 -0.34 1.02 0 0 Z " fill="#505356" transform="translate(156,286)"/>
<path d="M0 0 C3.875 0.875 3.875 0.875 5 2 C5.04092937 4.33297433 5.04241723 6.66705225 5 9 C4.01 9 3.02 9 2 9 C2 6.36 2 3.72 2 1 C1.34 0.67 0.68 0.34 0 0 Z " fill="#A3A5A6" transform="translate(337,238)"/>
<path d="M0 0 C1.65 0 3.3 0 5 0 C4.67 0.99 4.34 1.98 4 3 C3.67 3 3.34 3 3 3 C2.67 5.31 2.34 7.62 2 10 C1.34 10 0.68 10 0 10 C0 6.7 0 3.4 0 0 Z " fill="#6E7173" transform="translate(231,148)"/>
<path d="M0 0 C1.66611905 -0.042721 3.33382885 -0.04063832 5 0 C6 1 6 1 6.09765625 3.06640625 C6.08605469 3.89011719 6.07445312 4.71382812 6.0625 5.5625 C6.05347656 6.38878906 6.04445312 7.21507812 6.03515625 8.06640625 C6.01775391 9.02353516 6.01775391 9.02353516 6 10 C5.67 10 5.34 10 5 10 C5 8.35 5 6.7 5 5 C4.01 4.67 3.02 4.34 2 4 C2.66 4 3.32 4 4 4 C4 3.34 4 2.68 4 2 C2.35 2.33 0.7 2.66 -1 3 C-0.67 2.01 -0.34 1.02 0 0 Z " fill="#525558" transform="translate(173,148)"/>
<path d="M0 0 C1.65 0.33 3.3 0.66 5 1 C4.67 2.32 4.34 3.64 4 5 C2.35 4.67 0.7 4.34 -1 4 C-0.67 2.68 -0.34 1.36 0 0 Z " fill="#46494D" transform="translate(749,88)"/>
<path d="M0 0 C2.475 0.495 2.475 0.495 5 1 C4.34 1.66 3.68 2.32 3 3 C2.59952556 5.32275177 2.2602896 7.65739357 2 10 C1.34 10 0.68 10 0 10 C0 6.7 0 3.4 0 0 Z " fill="#858789" transform="translate(188,20)"/>
<path d="M0 0 C0.99 0.33 1.98 0.66 3 1 C3 2.32 3 3.64 3 5 C4.65 4.67 6.3 4.34 8 4 C8 4.99 8 5.98 8 7 C5.125 7.125 5.125 7.125 2 7 C0 5 0 5 -0.125 2.375 C-0.08375 1.59125 -0.0425 0.8075 0 0 Z " fill="#BEBFC1" transform="translate(1831,23)"/>
<path d="M0 0 C1.32 0 2.64 0 4 0 C4 1.98 4 3.96 4 6 C2.68 6 1.36 6 0 6 C0 4.02 0 2.04 0 0 Z " fill="#262A2E" transform="translate(1759,22)"/>
<path d="M0 0 C0.66 0 1.32 0 2 0 C2.1953125 2.01822917 2.390625 4.03645833 2.5859375 6.0546875 C2.86374749 8.22668245 2.86374749 8.22668245 5 10 C3.35 9.67 1.7 9.34 0 9 C0 6.03 0 3.06 0 0 Z " fill="#DDEAFE" transform="translate(171,402)"/>
<path d="M0 0 C1.65 0 3.3 0 5 0 C4.34 0.66 3.68 1.32 3 2 C2.59952556 4.32275177 2.2602896 6.65739357 2 9 C1.34 9 0.68 9 0 9 C0 6.03 0 3.06 0 0 Z " fill="#909294" transform="translate(260,238)"/>
<path d="M0 0 C1.65 0 3.3 0 5 0 C4.34 0.66 3.68 1.32 3 2 C2.59952556 4.32275177 2.2602896 6.65739357 2 9 C1.34 9 0.68 9 0 9 C0 6.03 0 3.06 0 0 Z " fill="#909294" transform="translate(223,238)"/>
<path d="M0 0 C2.475 0.495 2.475 0.495 5 1 C4.67 2.32 4.34 3.64 4 5 C2.68 4.67 1.36 4.34 0 4 C0 2.68 0 1.36 0 0 Z " fill="#34383C" transform="translate(412,88)"/>
<path d="M0 0 C1.32 0 2.64 0 4 0 C3.67 1.65 3.34 3.3 3 5 C1.68 4.67 0.36 4.34 -1 4 C-0.67 2.68 -0.34 1.36 0 0 Z " fill="#34373B" transform="translate(214,88)"/>
<path d="M0 0 C0.66 1.32 1.32 2.64 2 4 C0 6 0 6 -3.625 6.125 C-4.73875 6.08375 -5.8525 6.0425 -7 6 C-7 5.34 -7 4.68 -7 4 C-5.02 3.67 -3.04 3.34 -1 3 C-0.67 2.01 -0.34 1.02 0 0 Z " fill="#D9DADA" transform="translate(1839,29)"/>
<path d="M0 0 C1.134375 0.020625 2.26875 0.04125 3.4375 0.0625 C3.4375 0.7225 3.4375 1.3825 3.4375 2.0625 C1.4575 2.0625 -0.5225 2.0625 -2.5625 2.0625 C-2.8925 3.0525 -3.2225 4.0425 -3.5625 5.0625 C-4.2225 5.0625 -4.8825 5.0625 -5.5625 5.0625 C-4.43693182 0.07784091 -4.43693182 0.07784091 0 0 Z " fill="#D1D2D2" transform="translate(1821.5625,15.9375)"/>
<path d="M0 0 C0.99 0.33 1.98 0.66 3 1 C2.67 3.97 2.34 6.94 2 10 C1.34 10 0.68 10 0 10 C0 6.7 0 3.4 0 0 Z " fill="#676A6D" transform="translate(208,286)"/>
<path d="M0 0 C0.33 0 0.66 0 1 0 C1 2.97 1 5.94 1 9 C1.99 9 2.98 9 4 9 C4 9.66 4 10.32 4 11 C2.35 11 0.7 11 -1 11 C-0.67 7.37 -0.34 3.74 0 0 Z " fill="#C1C2C3" transform="translate(57,21)"/>
<path d="M0 0 C2.625 0.375 2.625 0.375 5 1 C3.68 1.33 2.36 1.66 1 2 C1 3.65 1 5.3 1 7 C0.01 7.33 -0.98 7.66 -2 8 C-2.125 5.125 -2.125 5.125 -2 2 C-1.34 1.34 -0.68 0.68 0 0 Z " fill="#727578" transform="translate(177,20)"/>
<path d="M0 0 C1.134375 0.020625 2.26875 0.04125 3.4375 0.0625 C2.4375 2.0625 2.4375 2.0625 -0.5 3.125 C-1.510625 3.434375 -2.52125 3.74375 -3.5625 4.0625 C-4.5525 4.5575 -4.5525 4.5575 -5.5625 5.0625 C-4.43693182 0.07784091 -4.43693182 0.07784091 0 0 Z " fill="#EBEBEC" transform="translate(96.5625,18.9375)"/>
<path d="M0 0 C1.134375 0.020625 2.26875 0.04125 3.4375 0.0625 C2.4375 2.0625 2.4375 2.0625 -0.5 3.125 C-1.510625 3.434375 -2.52125 3.74375 -3.5625 4.0625 C-4.5525 4.5575 -4.5525 4.5575 -5.5625 5.0625 C-4.43693182 0.07784091 -4.43693182 0.07784091 0 0 Z " fill="#EBEBEC" transform="translate(45.5625,18.9375)"/>
<path d="M0 0 C0.66 0 1.32 0 2 0 C1.745504 1.48206495 1.47088238 2.96068615 1.1875 4.4375 C1.03667969 5.26121094 0.88585937 6.08492188 0.73046875 6.93359375 C0.48941406 7.61550781 0.24835938 8.29742187 0 9 C-0.99 9.33 -1.98 9.66 -3 10 C-3 9.01 -3 8.02 -3 7 C-2.34 7 -1.68 7 -1 7 C-0.67 4.69 -0.34 2.38 0 0 Z " fill="#595C5F" transform="translate(193,286)"/>
<path d="M0 0 C0.66 0 1.32 0 2 0 C2.33 1.98 2.66 3.96 3 6 C3.66 6 4.32 6 5 6 C5 7.32 5 8.64 5 10 C4.34 10 3.68 10 3 10 C2.01 6.7 1.02 3.4 0 0 Z " fill="#55585B" transform="translate(181,286)"/>
<path d="M0 0 C1.32 0 2.64 0 4 0 C3.67 1.65 3.34 3.3 3 5 C2.01 5 1.02 5 0 5 C0 3.35 0 1.7 0 0 Z " fill="#FDFDFD" transform="translate(147,284)"/>
<path d="M0 0 C0.99 0.33 1.98 0.66 3 1 C2.67 3.64 2.34 6.28 2 9 C1.34 9 0.68 9 0 9 C0 6.03 0 3.06 0 0 Z " fill="#959698" transform="translate(186,238)"/>
<path d="M0 0 C3.60654039 2.40436026 3.85452932 3.94679607 5 8 C4.01 8.33 3.02 8.66 2 9 C0 7 0 7 -0.125 3.375 C-0.08375 2.26125 -0.0425 1.1475 0 0 Z " fill="#C0C1C2" transform="translate(104,22)"/>
<path d="M0 0 C0.99 0.33 1.98 0.66 3 1 C3 2.98 3 4.96 3 7 C2.01 7 1.02 7 0 7 C0 4.69 0 2.38 0 0 Z " fill="#D0D1D2" transform="translate(90,22)"/>
<path d="M0 0 C0.99 0.33 1.98 0.66 3 1 C3 2.98 3 4.96 3 7 C2.01 7 1.02 7 0 7 C0 4.69 0 2.38 0 0 Z " fill="#D0D1D2" transform="translate(39,22)"/>
<path d="M0 0 C0.99 0.33 1.98 0.66 3 1 C1.35 2.98 -0.3 4.96 -2 7 C-2.66 6.67 -3.32 6.34 -4 6 C-2.84826645 3.53199953 -1.95216435 1.95216435 0 0 Z " fill="#E8E8E9" transform="translate(127,19)"/>
<path d="M0 0 C0.33 0.99 0.66 1.98 1 3 C1.66 3.33 2.32 3.66 3 4 C2.34 4 1.68 4 1 4 C1 6.31 1 8.62 1 11 C1.66 11.33 2.32 11.66 3 12 C2.01 12 1.02 12 0 12 C0 9.36 0 6.72 0 4 C-0.66 3.67 -1.32 3.34 -2 3 C-1.34 3 -0.68 3 0 3 C0 2.01 0 1.02 0 0 Z " fill="#6C6E71" transform="translate(384,235)"/>
</svg>
