<?xml version="1.0" encoding="UTF-8"?>
<svg version="1.1" xmlns="http://www.w3.org/2000/svg" width="600" height="600">
<path d="M0 0 C198 0 396 0 600 0 C600 198 600 396 600 600 C402 600 204 600 0 600 C0 402 0 204 0 0 Z " fill="#EDD84C" transform="translate(0,0)"/>
<path d="M0 0 C10.24138674 7.20302136 17.81176212 15.01812971 25.0546875 25.1484375 C25.6940625 26.03015625 26.3334375 26.911875 26.9921875 27.8203125 C28.0546875 30.1484375 28.0546875 30.1484375 27.44213867 32.07275391 C25.63801799 34.7717921 23.67304134 35.97338979 20.91796875 37.6875 C19.8719751 38.34621094 18.82598145 39.00492187 17.74829102 39.68359375 C16.63252686 40.37324219 15.5167627 41.06289063 14.3671875 41.7734375 C12.65682565 42.84419831 10.94855295 43.91823397 9.24046326 44.99261475 C7.55397446 46.05312297 5.86586098 47.1110461 4.17773438 48.16894531 C-0.51876804 51.14574656 -5.12724207 54.2473562 -9.70385742 57.40478516 C-13.73550544 60.1484375 -13.73550544 60.1484375 -15.9453125 60.1484375 C-17.49609375 58.13671875 -17.49609375 58.13671875 -19.2578125 55.4609375 C-21.88897462 51.60913316 -24.41502596 48.23743823 -27.9453125 45.1484375 C-28.43257813 44.71917969 -28.91984375 44.28992188 -29.421875 43.84765625 C-36.9433101 37.80555554 -46.52235595 36.26749331 -55.9453125 37.1484375 C-62.84602759 38.06344945 -69.22252551 40.61474784 -73.55859375 46.2421875 C-77.7083043 53.442812 -78.33407683 61.25414002 -76.43359375 69.3203125 C-73.7909252 76.22485692 -68.61482631 80.91387679 -62.3828125 84.5234375 C-61.68736328 84.93134521 -60.99191406 85.33925293 -60.27539062 85.75952148 C-50.36633333 91.32478563 -39.81149518 95.69413602 -29.38061523 100.17529297 C-9.19889385 108.8822954 9.27116962 118.63395686 25.0546875 134.1484375 C25.7971875 134.85484375 26.5396875 135.56125 27.3046875 136.2890625 C40.49617533 149.78972583 45.32335461 168.95485656 45.23095703 187.31787109 C44.9251303 209.36092081 38.92367401 228.05831314 22.87597656 243.86645508 C-0.31819408 265.62972381 -31.14539814 267.9495259 -61.20751953 267.28027344 C-68.3940334 267.02679744 -74.99591821 266.03981904 -81.9453125 264.1484375 C-82.65719727 263.95507812 -83.36908203 263.76171875 -84.10253906 263.5625 C-99.78073172 259.16636463 -114.89058872 252.27435469 -126.9453125 241.1484375 C-128.37230469 239.85873047 -128.37230469 239.85873047 -129.828125 238.54296875 C-138.02119529 230.88978255 -147.35114622 220.93093635 -150.9453125 210.1484375 C-141.74654042 204.24288141 -132.40706115 198.59109612 -122.95233154 193.10574341 C-121.783435 192.42729453 -120.61550048 191.74718538 -119.44854736 191.06539917 C-117.78904822 190.09696933 -116.12506465 189.13623667 -114.4609375 188.17578125 C-113.01122559 187.33648071 -113.01122559 187.33648071 -111.53222656 186.48022461 C-109.28499585 185.32331223 -107.41349203 184.61185823 -104.9453125 184.1484375 C-104.0996875 185.1384375 -103.2540625 186.1284375 -102.3828125 187.1484375 C-101.83109375 187.78910156 -101.279375 188.42976562 -100.7109375 189.08984375 C-99.56693318 190.4236718 -98.43095444 191.76444251 -97.3046875 193.11328125 C-87.82214586 204.30179417 -76.1505396 213.95435065 -61.1171875 215.93359375 C-45.73820649 216.9752735 -32.6209087 217.06846931 -19.9453125 207.1484375 C-19.2853125 207.1484375 -18.6253125 207.1484375 -17.9453125 207.1484375 C-13.20231081 198.39212668 -11.04118927 189.72684796 -13.53125 179.81640625 C-20.66499737 163.22553507 -45.01377439 156.1328342 -60.05297852 149.52929688 C-68.83787608 145.66802076 -77.46213936 141.63226474 -85.9453125 137.1484375 C-86.53521973 136.84550781 -87.12512695 136.54257812 -87.73291016 136.23046875 C-106.39950224 126.60003104 -122.8832024 111.76369069 -129.56640625 91.24121094 C-136.3847164 68.34639501 -136.39419383 45.93473586 -124.97265625 24.4921875 C-113.29074946 5.22491927 -95.77672913 -5.68731913 -74.2578125 -11.08984375 C-49.99835062 -16.66837567 -20.99245105 -13.80677099 0 0 Z " fill="#31322F" transform="translate(507.9453125,284.8515625)"/>
<path d="M0 0 C18.48 0 36.96 0 56 0 C56.09045673 27.21738488 56.16407297 54.43464716 56.20724869 81.65214443 C56.22783291 94.29101906 56.25587412 106.92979332 56.30175781 119.56860352 C56.34175256 130.59058375 56.36746286 141.61249126 56.37635398 152.63454205 C56.38154736 158.46520277 56.39366682 164.29565554 56.42292023 170.12624931 C56.45028931 175.62639777 56.45840196 181.12625475 56.45243073 186.62646484 C56.45352142 188.6334244 56.46134608 190.64039481 56.4768219 192.647295 C56.64992694 216.27618112 51.62727945 238.76075458 34.9375 256.625 C15.2712653 275.22459146 -9.59522977 278.79919803 -35.640625 278.28515625 C-58.17473802 277.49547106 -80.13566729 268.12532657 -96 252 C-112 234.20838972 -112 234.20838972 -112 226 C-109.75952148 224.33349609 -109.75952148 224.33349609 -106.62109375 222.5234375 C-106.06177155 222.19647385 -105.50244934 221.86951019 -104.92617798 221.53263855 C-103.10249517 220.46958181 -101.27029433 219.42225572 -99.4375 218.375 C-98.19199841 217.65334609 -96.94712462 216.93060756 -95.70288086 216.20678711 C-93.85137008 215.13028074 -91.99928813 214.05488063 -90.14448547 212.98405457 C-84.27253979 209.59392432 -78.49410295 206.06127749 -72.72265625 202.50390625 C-70.39942407 201.22062879 -68.59353256 200.4437128 -66 200 C-65.55269531 200.64066406 -65.10539062 201.28132812 -64.64453125 201.94140625 C-63.3866931 203.74099986 -62.12475017 205.53772926 -60.859375 207.33203125 C-59.78357617 208.87566697 -58.72259325 210.43031468 -57.703125 212.01171875 C-53.16095179 218.93386628 -45.81551475 224.61209564 -37.67578125 226.5546875 C-27.50092975 228.24802045 -18.01995698 227.03701694 -9.35546875 221.2265625 C-6.65441785 218.67333031 -5.60043125 216.57123041 -4.25 213.125 C-3.84265625 212.11695313 -3.4353125 211.10890625 -3.015625 210.0703125 C-1.10556377 204.29605047 -0.84950761 198.68728525 -0.84178162 192.6477356 C-0.83684364 191.82181502 -0.83190566 190.99589445 -0.82681805 190.14494598 C-0.81149717 187.38585787 -0.80309713 184.62679293 -0.79467773 181.86767578 C-0.78509496 179.88651833 -0.77508464 177.9053629 -0.76467896 175.92420959 C-0.73766716 170.55078231 -0.71663742 165.17734628 -0.69667697 159.8038888 C-0.67479444 154.1864529 -0.64741684 148.56904386 -0.62062073 142.95162964 C-0.57072451 132.31642918 -0.52577428 121.68121378 -0.48259836 111.04598415 C-0.43319975 98.93723056 -0.37829135 86.82850391 -0.32291877 74.71977639 C-0.20914585 49.81320818 -0.10302393 24.90661516 0 0 Z " fill="#31322F" transform="translate(270,274)"/>
</svg>
