<?xml version="1.0" encoding="UTF-8"?>
<svg version="1.1" xmlns="http://www.w3.org/2000/svg" width="48" height="48">
<path d="M0 0 C0.61601074 0.18248291 1.23202148 0.36496582 1.86669922 0.55297852 C6.99477286 2.26963778 11.72917684 4.57943295 15 9 C17.77322956 16.57337613 17.8671607 25.44660918 15 33 C10.89453757 38.25117287 4.43994902 41.52496589 -2 43 C-5.97062656 42.81786117 -7.37397734 42.54365126 -10.375 39.9375 C-10.91125 39.298125 -11.4475 38.65875 -12 38 C-11 37 -11 37 -8.6875 36.9375 C-7.800625 36.958125 -6.91375 36.97875 -6 37 C-1.50486812 37 0.98417497 35.64272232 4.75 33.5 C6.8125 32.345 8.875 31.19 11 30 C11 24.06 11 18.12 11 12 C8.793125 10.63875 6.58625 9.2775 4.3125 7.875 C3.62712158 7.43913574 2.94174316 7.00327148 2.2355957 6.55419922 C-1.4506213 4.35577269 -1.4506213 4.35577269 -5.59375 4.5625 C-6.3878125 5.036875 -7.181875 5.51125 -8 6 C-9.43279297 6.74636719 -9.43279297 6.74636719 -10.89453125 7.5078125 C-13.59635417 9.00520833 -16.29817708 10.50260417 -19 12 C-19 17.94 -19 23.88 -19 30 C-17.02 30.99 -15.04 31.98 -13 33 C-12.67 26.4 -12.34 19.8 -12 13 C-10.68 13 -9.36 13 -8 13 C-8 16.3 -8 19.6 -8 23 C-6.68 23 -5.36 23 -4 23 C-3.54625 23.495 -3.0925 23.99 -2.625 24.5 C-0.97690414 26.33931546 -0.97690414 26.33931546 2.1875 26.1875 C3.115625 26.125625 4.04375 26.06375 5 26 C5 25.34 5 24.68 5 24 C4.21753906 23.86722656 3.43507813 23.73445313 2.62890625 23.59765625 C1.11103516 23.33275391 1.11103516 23.33275391 -0.4375 23.0625 C-1.95150391 22.80146484 -1.95150391 22.80146484 -3.49609375 22.53515625 C-6 22 -6 22 -7 21 C-7.04092937 18.66702567 -7.04241723 16.33294775 -7 14 C-3.33755697 11.65603646 -0.27605847 11.47487001 4 12 C6.9375 14.375 6.9375 14.375 9 17 C9 17.66 9 18.32 9 19 C4.91621717 18.25749403 0.98060777 17.17076699 -3 16 C-2.67 16.66 -2.34 17.32 -2 18 C0.05376006 18.61365708 0.05376006 18.61365708 2.4375 19 C6.78082192 19.78082192 6.78082192 19.78082192 9 22 C8.75 25.5625 8.75 25.5625 8 29 C5.39820337 30.30089831 3.4030812 30.16840078 0.5 30.1875 C-0.4796875 30.20167969 -1.459375 30.21585938 -2.46875 30.23046875 C-5 30 -5 30 -7 28 C-7.14695312 28.56589844 -7.29390625 29.13179687 -7.4453125 29.71484375 C-8.13266815 31.96257574 -8.85441027 33.94569059 -10 36 C-12.75 37.25 -12.75 37.25 -16 37 C-18.4342123 35.81568435 -20.67680005 34.39832414 -23 33 C-25.68571866 12.64687054 -25.68571866 12.64687054 -21.42822266 6.86572266 C-15.51007399 1.77879897 -7.80557452 -2.40810278 0 0 Z " fill="#20A364" transform="translate(28,3)"/>
</svg>
